<?xml version="1.0" encoding="UTF-8"?>
<svg width="842px" height="595px" viewBox="0 0 842 595" version="1.1" xmlns="http://www.w3.org/2000/svg" xmlns:xlink="http://www.w3.org/1999/xlink">
    <title>Combined Shape</title>
    <defs>
        <linearGradient x1="50%" y1="0%" x2="50%" y2="100%" id="linearGradient-1">
            <stop stop-color="#F3727D" offset="0%"></stop>
            <stop stop-color="#F69E83" offset="100%"></stop>
        </linearGradient>
    </defs>
    <g id="Page-1" stroke="none" stroke-width="1" fill="none" fill-rule="evenodd">
        <path d="M842,0 L842,595 L0,595 L0,0 L842,0 Z M44.8395401,560.849223 C44.6003765,560.404843 44.047995,560.235899 43.6011752,560.470473 C43.5984345,560.471912 43.5957012,560.473365 43.5929755,560.474832 C43.1544649,560.710836 42.9903013,561.257639 43.2263058,561.696149 L43.2263058,561.696149 L45.92463,566.709797 C46.1637936,567.154178 46.7161751,567.323122 47.1629949,567.088548 C47.1657356,567.087109 47.1684689,567.085656 47.1711946,567.084189 C47.6097052,566.848184 47.7738688,566.301382 47.5378643,565.862871 L47.5378643,565.862871 Z M41.5147675,559.797479 C41.268137,559.339225 40.6985095,559.165006 40.2377394,559.406904 L40.2377394,559.406904 L35.4484037,561.921241 C35.4455774,561.922725 35.4427588,561.924223 35.439948,561.925736 C34.9877466,562.169109 34.8184576,562.732983 35.0618305,563.185185 C35.3084611,563.643439 35.8780886,563.817658 36.3388586,563.57576 L36.3388586,563.57576 L41.1281943,561.061423 C41.1310206,561.059939 41.1338392,561.058441 41.1366501,561.056928 C41.5888515,560.813555 41.7581404,560.249681 41.5147675,559.797479 Z M437.740307,555.836807 C436.760627,556.887385 436.818102,558.533234 437.86868,559.512914 C438.919258,560.492594 440.565108,560.43512 441.544788,559.384542 C442.524468,558.333964 442.466993,556.688114 441.416415,555.708434 C440.365837,554.728754 438.719987,554.786228 437.740307,555.836807 Z M459.796954,555.066572 C458.817274,556.11715 458.874749,557.762999 459.925327,558.742679 C460.975905,559.722359 462.621755,559.664885 463.601435,558.614307 C464.581115,557.563729 464.52364,555.917879 463.473062,554.938199 C462.422484,553.958519 460.776634,554.015993 459.796954,555.066572 Z M50.6564284,554.99823 C50.4097978,554.539976 49.8401703,554.365757 49.3794002,554.607655 L49.3794002,554.607655 L44.5900646,557.121992 C44.5872383,557.123476 44.5844197,557.124974 44.5816088,557.126487 C44.1294074,557.36986 43.9601184,557.933734 44.2034913,558.385936 C44.4501219,558.84419 45.0197494,559.018409 45.4805195,558.776511 L45.4805195,558.776511 L50.2698552,556.262174 C50.2726814,556.26069 50.2755001,556.259192 50.2783109,556.257679 C50.7305123,556.014306 50.8998013,555.450432 50.6564284,554.99823 Z M39.7936289,551.473617 C39.5544653,551.029237 39.0020838,550.860293 38.555264,551.094867 C38.5525233,551.096306 38.54979,551.097759 38.5470643,551.099226 C38.1085537,551.335231 37.9443901,551.882033 38.1803946,552.320544 L38.1803946,552.320544 L40.8787188,557.334192 C41.1178824,557.778572 41.6702639,557.947516 42.1170837,557.712942 L42.1170837,557.712942 C42.563794,557.472579 42.7279576,556.925776 42.491953,556.487266 L42.491953,556.487266 Z M773.562966,539.084503 C773.314568,540.362399 774.149141,541.599705 775.427037,541.848103 C776.704933,542.096501 777.942239,541.261927 778.190637,539.984031 C778.439035,538.706135 777.604461,537.46883 776.326565,537.220432 C775.048669,536.972034 773.811364,537.806607 773.562966,539.084503 Z M436.970072,533.78016 C435.990392,534.830738 436.047867,536.476587 437.098445,537.456267 C438.149023,538.435948 439.794873,538.378473 440.774553,537.327895 C441.754233,536.277317 441.696758,534.631467 440.64618,533.651787 C439.595602,532.672107 437.949752,532.729581 436.970072,533.78016 Z M459.026719,533.009925 C458.047039,534.060503 458.104514,535.706352 459.155092,536.686032 C460.20567,537.665712 461.85152,537.608238 462.8312,536.55766 C463.81088,535.507082 463.753405,533.861232 462.702827,532.881552 C461.652249,531.901872 460.006399,531.959346 459.026719,533.009925 Z M790.144563,527.900075 C789.896165,529.177971 790.730738,530.415276 792.008635,530.663674 C793.286531,530.912072 794.523836,530.077499 794.772234,528.799603 C795.020632,527.521707 794.186059,526.284401 792.908163,526.036003 C791.630267,525.787605 790.392961,526.622178 790.144563,527.900075 Z M762.378537,522.502906 C762.130139,523.780802 762.964712,525.018108 764.242608,525.266505 C765.520505,525.514903 766.75781,524.68033 767.006208,523.402434 C767.254606,522.124538 766.420033,520.887232 765.142137,520.638834 C763.864241,520.390437 762.626935,521.22501 762.378537,522.502906 Z M204.007296,514.002364 C202.837233,514.573042 202.351336,515.98419 202.922014,517.154253 C203.492691,518.324316 204.90384,518.810213 206.073903,518.239536 C207.243966,517.668858 207.729863,516.257709 207.159186,515.087646 C206.588508,513.917584 205.177359,513.431686 204.007296,514.002364 Z M778.960134,511.318477 C778.711737,512.596373 779.54631,513.833679 780.824206,514.082077 C782.102102,514.330475 783.339408,513.495901 783.587805,512.218005 C783.836203,510.940109 783.00163,509.702804 781.723734,509.454406 C780.445838,509.206008 779.208532,510.040581 778.960134,511.318477 Z M185.09596,507.490669 C183.925897,508.061346 183.44,509.472495 184.010677,510.642558 C184.581355,511.812621 185.992504,512.298518 187.162567,511.72784 C188.332629,511.157163 188.818527,509.746014 188.247849,508.575951 C187.677172,507.405888 186.266023,506.919991 185.09596,507.490669 Z M210.518991,495.091028 C209.348929,495.661705 208.863031,497.072854 209.433709,498.242917 C210.004387,499.41298 211.415536,499.898877 212.585598,499.328199 C213.755661,498.757522 214.241559,497.346373 213.670881,496.17631 C213.100203,495.006247 211.689054,494.52035 210.518991,495.091028 Z M609.905702,487.697502 C609.301935,487.441368 608.604833,487.723015 608.348445,488.326675 L608.348445,488.326675 L605.530335,494.961845 C605.53027,494.961998 605.530205,494.962151 605.53014,494.962304 L605.486046,495.084077 C605.31313,495.656679 605.596033,496.279518 606.159243,496.518447 C606.76301,496.774581 607.460112,496.492934 607.7165,495.889275 L607.7165,495.889275 L610.53461,489.254105 C610.534675,489.253952 610.53474,489.253799 610.534805,489.253645 L610.5789,489.131872 C610.751816,488.559271 610.468912,487.936431 609.905702,487.697502 Z M191.607655,488.579332 C190.437592,489.15001 189.951695,490.561159 190.522373,491.731222 C191.09305,492.901284 192.504199,493.387182 193.674262,492.816504 C194.844325,492.245826 195.330222,490.834678 194.759545,489.664615 C194.188867,488.494552 192.777718,488.008655 191.607655,488.579332 Z M614.079141,485.99789 C613.469998,485.739475 612.76669,486.02363 612.508019,486.632664 C612.507953,486.632818 612.507888,486.632973 612.507822,486.633127 C612.249548,487.241939 612.533715,487.944851 613.142526,488.203126 L613.142526,488.203126 L619.681557,490.977159 C620.2907,491.235574 620.994008,490.951419 621.252679,490.342385 L621.252777,490.342153 C621.51115,489.733109 621.226983,489.030197 620.618171,488.771923 L620.618171,488.771923 Z M601.690873,480.742452 C601.08173,480.484037 600.378421,480.768192 600.119751,481.377226 L600.119751,481.377226 L600.075067,481.500547 C599.900611,482.078247 600.186034,482.706632 600.754258,482.947688 L600.754258,482.947688 L607.293288,485.721721 C607.902431,485.980136 608.60574,485.695981 608.864411,485.086947 C609.122882,484.477672 608.838715,483.774759 608.229903,483.516485 L608.229903,483.516485 Z M615.213186,475.201163 C614.609419,474.945029 613.912317,475.226676 613.655929,475.830336 L613.655929,475.830336 L610.837819,482.465506 L610.837819,482.465506 L610.79353,482.587738 C610.620614,483.16034 610.903517,483.78318 611.466727,484.022108 C612.070494,484.278243 612.767596,483.996595 613.023984,483.392936 L613.023984,483.392936 L615.842094,476.757766 L615.842094,476.757766 L615.886383,476.635534 C616.0593,476.062932 615.776396,475.440092 615.213186,475.201163 Z M482.937829,385.496717 C482.222701,385.509614 481.654631,386.098553 481.667503,386.812174 L481.667503,386.812174 L481.806408,394.513357 C481.819299,395.228054 482.408688,395.797222 483.1234,395.785165 C483.123902,395.785156 483.124404,395.785147 483.124906,395.785138 L483.256898,395.776084 C483.907267,395.698163 484.405793,395.138727 484.393726,394.469707 L484.393726,394.469707 L484.254821,386.768524 C484.24193,386.053827 483.652541,385.484659 482.937829,385.496717 L482.937829,385.496717 Z M822.136453,383.015674 C821.745429,382.515187 821.022717,382.426449 820.52223,382.817473 C820.021743,383.208496 819.933005,383.931209 820.324028,384.431696 L820.324028,384.431696 L824.512649,389.792886 C824.903673,390.293374 825.626385,390.382111 826.126872,389.991088 C826.627359,389.600064 826.716097,388.877352 826.325074,388.376865 L826.325074,388.376865 Z M817.844242,382.502987 C817.457322,382.007753 816.742195,381.919946 816.24696,382.306866 L816.24696,382.306866 L810.790665,386.569791 C810.29543,386.956711 810.207623,387.671838 810.594543,388.167073 C810.981463,388.662308 811.696591,388.750114 812.191825,388.363195 L812.191825,388.363195 L817.64812,384.10027 C818.143355,383.71335 818.231162,382.998222 817.844242,382.502987 Z M479.433791,382.125306 L471.656684,382.25651 C471.656185,382.256518 471.655686,382.256527 471.655186,382.256536 L471.523967,382.265537 C470.877408,382.343002 470.381802,382.899161 470.393798,383.564263 C470.406614,384.274774 470.992551,384.840609 471.703077,384.828622 L471.703077,384.828622 L479.480184,384.697418 L479.480184,384.697418 C480.191123,384.684595 480.755866,384.099106 480.74307,383.389665 C480.730255,382.679153 480.144317,382.113319 479.433791,382.125306 L479.433791,382.125306 Z M494.09526,381.877958 L486.318152,382.009162 L486.318152,382.009162 C485.607213,382.021985 485.04247,382.607474 485.055266,383.316915 C485.068082,384.027427 485.654019,384.593261 486.364545,384.581274 L486.364545,384.581274 L494.141652,384.45007 L494.141652,384.45007 C494.852592,384.437248 495.417334,383.851759 495.404538,383.142317 C495.391723,382.431806 494.805786,381.865971 494.09526,381.877958 L494.09526,381.877958 Z M212.119058,377.249317 C211.677078,377.03543 211.134645,377.17917 210.860607,377.601846 L210.860607,377.601846 L207.558439,382.695114 C207.260986,383.153906 207.391285,383.766921 207.849628,384.065065 C207.850044,384.065336 207.850461,384.065606 207.850877,384.065876 L207.959066,384.126844 C208.401046,384.340731 208.943478,384.196991 209.217516,383.774315 L209.217516,383.774315 L212.519685,378.681047 C212.817138,378.222255 212.686839,377.609241 212.228496,377.311096 C212.228079,377.310825 212.227663,377.310555 212.227246,377.310285 Z M215.912832,376.506913 C215.44727,376.20507 214.825166,376.337791 214.523324,376.803353 C214.220893,377.269823 214.353372,377.893096 214.819386,378.19623 L214.819386,378.19623 L219.768854,381.415774 C219.769277,381.416049 219.7697,381.416324 219.770124,381.416599 C220.235686,381.718441 220.85779,381.58572 221.159632,381.120158 C221.462063,380.653688 221.329584,380.030415 220.86357,379.727282 L220.86357,379.727282 L215.914102,376.507738 C215.913679,376.507462 215.913256,376.507187 215.912832,376.506913 Z M482.674937,370.921415 C481.959809,370.934313 481.391739,371.523252 481.404611,372.236873 L481.404611,372.236873 L481.543516,379.938055 C481.556406,380.652753 482.145796,381.221921 482.860508,381.209863 L482.860508,381.209863 C483.575635,381.196966 484.143705,380.608027 484.130833,379.894406 L484.130833,379.894406 L483.991929,372.193223 C483.979038,371.478526 483.389649,370.909358 482.674937,370.921415 L482.674937,370.921415 Z M828.114649,374.478866 C827.727729,373.983631 827.012601,373.895825 826.517367,374.282745 L826.517367,374.282745 L821.061072,378.54567 C820.565837,378.932589 820.47803,379.647717 820.86495,380.142952 C821.25187,380.638187 821.966997,380.725993 822.462232,380.339073 L822.462232,380.339073 L827.918527,376.076148 C828.413762,375.689229 828.501569,374.974101 828.114649,374.478866 Z M814.196543,372.853053 C813.805519,372.352566 813.082807,372.263828 812.58232,372.654851 C812.081832,373.045875 811.993095,373.768587 812.384118,374.269074 L812.384118,374.269074 L816.572739,379.630265 C816.963763,380.130752 817.686475,380.21949 818.186962,379.828467 C818.687449,379.437443 818.776187,378.714731 818.385164,378.214243 L818.385164,378.214243 Z M206.511396,370.391439 C206.045834,370.089597 205.42373,370.222318 205.121887,370.68788 C204.819456,371.15435 204.951935,371.777623 205.417949,372.080756 L205.417949,372.080756 L210.367417,375.3003 C210.36784,375.300576 210.368263,375.300851 210.368687,375.301125 C210.834249,375.602968 211.456353,375.470247 211.758195,375.004685 C212.060627,374.538215 211.928147,373.914942 211.462134,373.611808 L211.462134,373.611808 L206.512666,370.392264 C206.512243,370.391989 206.511819,370.391714 206.511396,370.391439 Z M218.430642,367.742162 C217.972743,367.445287 217.360877,367.575824 217.064003,368.033723 L217.064003,368.033723 L213.761835,373.126991 C213.464381,373.585783 213.59468,374.198797 214.053024,374.496942 C214.05344,374.497213 214.053856,374.497483 214.054273,374.497753 C214.512172,374.794628 215.124037,374.664091 215.420912,374.206192 L215.420912,374.206192 L218.72308,369.112924 C219.020534,368.654132 218.890235,368.041117 218.431891,367.742973 L218.431267,367.742567 Z M43.610814,351.27813 C43.5114582,350.650822 42.9223808,350.222833 42.2950728,350.322188 C41.6677648,350.421544 41.239775,351.010622 41.3391309,351.63793 L41.3391309,351.63793 L42.4034247,358.357616 C42.5027805,358.984924 43.0918579,359.412914 43.7191659,359.313558 C44.3464739,359.214202 44.7744637,358.625125 44.6751078,357.997817 L44.6751078,357.997817 Z M40.1053174,348.748819 C40.0070043,348.128094 39.4241091,347.704596 38.8033846,347.802909 L38.8033846,347.802909 L31.9644943,348.886083 C31.3437697,348.984396 30.9202716,349.567292 31.0185847,350.188016 C31.1168978,350.808741 31.699793,351.232239 32.3205176,351.133926 L32.3205176,351.133926 L39.1594079,350.050752 C39.7801324,349.952439 40.2036306,349.369544 40.1053174,348.748819 Z M52.9781888,346.709957 C52.8798757,346.089232 52.2969805,345.665734 51.676256,345.764047 L51.676256,345.764047 L44.8373657,346.847221 C44.2166411,346.945534 43.793143,347.528429 43.8914561,348.149154 C43.9897692,348.769878 44.5726644,349.193376 45.1933889,349.095063 L45.1933889,349.095063 L52.0322792,348.011889 C52.6530038,347.913576 53.0765019,347.330681 52.9781888,346.709957 Z M40.4024257,337.571477 L40.2776076,337.584415 C39.6502997,337.68377 39.2223099,338.272848 39.3216657,338.900156 L39.3216657,338.900156 L40.3859595,345.619842 C40.4853153,346.24715 41.0743927,346.67514 41.7017007,346.575784 C42.3290087,346.476428 42.7569985,345.887351 42.6576427,345.260043 L42.6576427,345.260043 L41.5933489,338.540357 C41.493993,337.913049 40.9049156,337.485059 40.2776076,337.584415 Z M697.728598,293.731632 C697.611699,295.067791 698.600105,296.245727 699.936264,296.362626 C701.272423,296.479525 702.450359,295.491119 702.567258,294.15496 C702.684156,292.818801 701.695751,291.640865 700.359592,291.523966 C699.023433,291.407067 697.845496,292.395473 697.728598,293.731632 Z M713.514561,280.485636 C713.397662,281.821795 714.386068,282.999731 715.722227,283.11663 C717.058386,283.233528 718.236322,282.245123 718.353221,280.908964 C718.47012,279.572804 717.481714,278.394868 716.145555,278.27797 C714.809396,278.161071 713.63146,279.149477 713.514561,280.485636 Z M684.482601,277.945668 C684.365703,279.281827 685.354108,280.459763 686.690267,280.576662 C688.026427,280.693561 689.204363,279.705155 689.321261,278.368996 C689.43816,277.032837 688.449754,275.854901 687.113595,275.738002 C685.777436,275.621103 684.5995,276.609509 684.482601,277.945668 Z M700.268565,264.699672 C700.151666,266.035831 701.140072,267.213767 702.476231,267.330666 C703.81239,267.447565 704.990326,266.459159 705.107225,265.123 C705.224124,263.786841 704.235718,262.608905 702.899559,262.492006 C701.5634,262.375107 700.385464,263.363513 700.268565,264.699672 Z M459.621153,240.373234 C458.300267,240.606142 457.418286,241.865741 457.651194,243.186627 C457.884102,244.507513 459.143701,245.389494 460.464587,245.156586 C461.785473,244.923678 462.667454,243.664079 462.434546,242.343193 C462.201638,241.022307 460.942039,240.140326 459.621153,240.373234 Z M297.098923,231.006428 C296.763466,230.509092 296.088353,230.377864 295.591017,230.713321 C295.093681,231.048778 294.962453,231.723891 295.29791,232.221227 L295.29791,232.221227 L299.004009,237.715745 C299.339467,238.213081 300.014579,238.344309 300.511915,238.008852 C301.009251,237.673395 301.140479,236.998282 300.805022,236.500946 L300.805022,236.500946 Z M293.064987,230.205751 C292.725269,229.7021 292.041584,229.569205 291.537933,229.908922 L291.537933,229.908922 L286.157765,233.537891 C285.654114,233.877608 285.521219,234.561293 285.860936,235.064944 C286.200653,235.568596 286.884338,235.701491 287.387989,235.361774 L287.387989,235.361774 L292.768157,231.732804 C293.271809,231.393087 293.404704,230.709402 293.064987,230.205751 Z M442.740795,228.55348 C441.419909,228.786388 440.537928,230.045987 440.770836,231.366873 C441.003744,232.687759 442.263343,233.56974 443.584229,233.336832 C444.905115,233.103924 445.787096,231.844325 445.554188,230.523439 C445.32128,229.202553 444.061681,228.320572 442.740795,228.55348 Z M303.270725,223.321893 C302.931008,222.818242 302.247323,222.685347 301.743671,223.025064 L301.743671,223.025064 L296.363503,226.654033 C295.859852,226.993751 295.726957,227.677436 296.066674,228.181087 C296.406391,228.684738 297.090077,228.817633 297.593728,228.477916 L297.593728,228.477916 L302.973896,224.848947 C303.477547,224.50923 303.610442,223.825545 303.270725,223.321893 Z M471.440907,223.492876 C470.120021,223.725784 469.23804,224.985383 469.470948,226.306269 C469.703856,227.627155 470.963455,228.509136 472.284341,228.276228 C473.605227,228.04332 474.487208,226.783721 474.2543,225.462835 C474.021392,224.141949 472.761793,223.259968 471.440907,223.492876 Z M290.127651,220.671093 C289.792194,220.173757 289.117082,220.042529 288.619746,220.377986 C288.12241,220.713443 287.991181,221.388556 288.326639,221.885892 L288.326639,221.885892 L292.032738,227.38041 C292.368195,227.877746 293.043307,228.008974 293.540643,227.673517 C294.037979,227.338059 294.169208,226.662947 293.833751,226.165611 L293.833751,226.165611 Z M120.004325,212.952284 C118.865385,213.366824 118.278144,214.626168 118.692684,215.765107 C119.107224,216.904046 120.366567,217.491288 121.505507,217.076748 C122.644446,216.662208 123.231687,215.402864 122.817147,214.263925 C122.402607,213.124986 121.143264,212.537744 120.004325,212.952284 Z M454.560549,211.673122 C453.239663,211.90603 452.357682,213.165629 452.59059,214.486515 C452.823498,215.807401 454.083097,216.689382 455.403983,216.456474 C456.724869,216.223566 457.60685,214.963967 457.373942,213.643081 C457.141034,212.322195 455.881435,211.440214 454.560549,211.673122 Z M103.127388,205.082439 C101.988448,205.496979 101.401207,206.756323 101.815747,207.895262 C102.230287,209.034201 103.48963,209.621443 104.62857,209.206903 C105.767509,208.792363 106.35475,207.533019 105.94021,206.39408 C105.52567,205.255141 104.266327,204.667899 103.127388,205.082439 Z M127.87417,196.075347 C126.73523,196.489887 126.147989,197.749231 126.562529,198.88817 C126.977069,200.027109 128.236412,200.614351 129.375352,200.199811 C130.514291,199.785271 131.101532,198.525927 130.686992,197.386988 C130.272452,196.248049 129.013109,195.660807 127.87417,196.075347 Z M110.997233,188.205502 C109.858293,188.620042 109.271052,189.879386 109.685592,191.018325 C110.100132,192.157264 111.359475,192.744506 112.498415,192.329966 C113.637354,191.915426 114.224595,190.656082 113.810055,189.517143 C113.395515,188.378204 112.136172,187.790962 110.997233,188.205502 Z M585.024727,125.031394 L584.906478,125.039492 C584.311054,125.112601 583.887634,125.654554 583.960743,126.249978 L583.960743,126.249978 L584.768442,132.828163 C584.841551,133.423587 585.383504,133.847007 585.978928,133.773898 C586.574352,133.700789 586.997772,133.158836 586.924663,132.563412 L586.924663,132.563412 L586.116964,125.985227 C586.043855,125.389803 585.501902,124.966383 584.906478,125.039492 Z M581.780093,122.474505 L581.660343,122.482705 L575.219061,123.273595 C574.616076,123.347632 574.187279,123.896467 574.261316,124.499452 C574.335353,125.102437 574.884188,125.531234 575.487173,125.457197 L575.487173,125.457197 L581.928455,124.666307 C582.53144,124.592269 582.960237,124.043434 582.8862,123.440449 C582.812163,122.837465 582.263328,122.408668 581.660343,122.482705 Z M593.998679,120.974251 L593.878928,120.982451 L587.437646,121.773341 C586.834661,121.847379 586.405864,122.396213 586.479901,122.999198 C586.553939,123.602183 587.102774,124.03098 587.705759,123.956943 L587.705759,123.956943 L594.147041,123.166053 C594.750026,123.092016 595.178822,122.543181 595.104785,121.940196 C595.030748,121.337211 594.481913,120.908414 593.878928,120.982451 Z M583.505422,112.657652 L583.387173,112.66575 C582.791749,112.738859 582.368329,113.280812 582.441438,113.876236 L582.441438,113.876236 L583.249138,120.454421 C583.322247,121.049845 583.8642,121.473265 584.459624,121.400156 C585.055048,121.327047 585.478468,120.785094 585.405359,120.18967 L585.405359,120.18967 L584.597659,113.611485 C584.52455,113.016061 583.982597,112.592641 583.387173,112.66575 Z M792.949047,85.3410541 C792.482008,84.920531 791.762498,84.9582389 791.341975,85.4252772 L791.341975,85.4252772 L786.708822,90.5709144 C786.288299,91.0379527 786.326007,91.7574633 786.793045,92.1779865 C787.260083,92.5985096 787.979594,92.5608016 788.400117,92.0937634 L788.400117,92.0937634 L793.03327,86.9481261 C793.453793,86.4810879 793.416085,85.7615772 792.949047,85.3410541 Z M797.265076,85.1006176 C796.793085,84.6756344 796.065943,84.7137423 795.64096,85.185734 C795.215976,85.6577257 795.254084,86.3848675 795.726076,86.8098507 L795.726076,86.8098507 L800.782023,91.3622462 C801.254015,91.7872294 801.981157,91.7491215 802.40614,91.2771298 C802.831123,90.8051381 802.793015,90.0779963 802.321024,89.6530131 L802.321024,89.6530131 Z M787.681071,76.4711401 C787.209079,76.0461569 786.481937,76.0842648 786.056954,76.5562565 C785.631971,77.0282482 785.670078,77.75539 786.14207,78.1803732 L786.14207,78.1803732 L791.198018,82.7327687 C791.670009,83.1577519 792.397151,83.119644 792.822134,82.6476524 C793.247118,82.1756607 793.20901,81.4485188 792.737018,81.0235356 L792.737018,81.0235356 Z M801.670049,75.6553999 C801.203011,75.2348767 800.4835,75.2725847 800.062977,75.7396229 L800.062977,75.7396229 L795.429824,80.8852602 C795.009301,81.3522985 795.047009,82.0718091 795.514047,82.4923322 C795.981085,82.9128554 796.700596,82.8751474 797.121119,82.4081092 L797.121119,82.4081092 L801.754272,77.2624719 C802.174795,76.7954336 802.137087,76.075923 801.670049,75.6553999 Z M238.234851,70.9929182 C237.523391,71.6113804 237.448002,72.6894949 238.066464,73.4009543 C238.684927,74.1124137 239.763041,74.1878028 240.474501,73.5693406 C241.18596,72.9508784 241.261349,71.8727639 240.642887,71.1613045 C240.024425,70.4498451 238.94631,70.374456 238.234851,70.9929182 Z M223.786634,69.9826005 C223.075175,70.6010627 222.999786,71.6791772 223.618248,72.3906366 C224.23671,73.102096 225.314825,73.1774851 226.026284,72.5590229 C226.737743,71.9405606 226.813133,70.8624462 226.19467,70.1509868 C225.576208,69.4395274 224.498094,69.3641383 223.786634,69.9826005 Z M239.245168,56.5447018 C238.533709,57.163164 238.45832,58.2412785 239.076782,58.9527378 C239.695244,59.6641972 240.773359,59.7395863 241.484818,59.1211241 C242.196278,58.5026619 242.271667,57.4245474 241.653205,56.7130881 C241.034742,56.0016287 239.956628,55.9262396 239.245168,56.5447018 Z M224.796952,55.5343841 C224.085493,56.1528463 224.010103,57.2309607 224.628566,57.9424201 C225.247028,58.6538795 226.325142,58.7292686 227.036602,58.1108064 C227.748061,57.4923442 227.82345,56.4142297 227.204988,55.7027703 C226.586526,54.9913109 225.508411,54.9159218 224.796952,55.5343841 Z M721.249758,37.438205 C720.60406,38.1306315 720.641941,39.215396 721.334368,39.8610942 C722.026794,40.5067924 723.111559,40.4689116 723.757257,39.776485 C724.402955,39.0840585 724.365074,37.999294 723.672648,37.3535958 C722.980221,36.7078976 721.895457,36.7457784 721.249758,37.438205 Z M735.787094,36.93055 C735.141396,37.6229766 735.179276,38.707741 735.871703,39.3534393 C736.56413,39.9991375 737.648894,39.9612567 738.294592,39.2688301 C738.94029,38.5764035 738.90241,37.4916391 738.209983,36.8459409 C737.517557,36.2002426 736.432792,36.2381234 735.787094,36.93055 Z M415.769414,19.6579059 C415.034921,19.5682782 414.36684,20.0910449 414.277212,20.825538 L414.277212,20.825538 L413.307933,28.7687158 C413.218131,29.5046325 413.741289,30.1742468 414.47707,30.2651505 L414.47707,30.2651505 C415.213555,30.3550228 415.881637,29.8322561 415.971265,29.0977631 L415.971265,29.0977631 L416.940544,21.1545852 C417.030345,20.4186685 416.507188,19.7490543 415.771406,19.6581505 C415.770743,19.6580685 415.770079,19.657987 415.769414,19.6579059 Z M38.0247266,21.0313943 L37.9064778,21.0394919 C37.3110538,21.1126007 36.8876338,21.6545537 36.9607426,22.2499777 L36.9607426,22.2499777 L37.7684422,28.8281628 C37.8415511,29.4235868 38.383504,29.8470069 38.978928,29.773898 C39.574352,29.7007891 39.997772,29.1588362 39.9246632,28.5634122 L39.9246632,28.5634122 L39.1169636,21.985227 C39.0438547,21.389803 38.5019018,20.966383 37.9064778,21.0394919 Z M720.742103,22.9008695 C720.096405,23.593296 720.134286,24.6780605 720.826713,25.3237587 C721.519139,25.9694569 722.603904,25.9315761 723.249602,25.2391496 C723.8953,24.546723 723.857419,23.4619585 723.164993,22.8162603 C722.472566,22.1705621 721.387802,22.2084429 720.742103,22.9008695 Z M735.279439,22.3932145 C734.633741,23.0856411 734.671621,24.1704056 735.364048,24.8161038 C736.056475,25.461802 737.141239,25.4239212 737.786937,24.7314946 C738.432636,24.039068 738.394755,22.9543036 737.702328,22.3086054 C737.009902,21.6629071 735.925137,21.700788 735.279439,22.3932145 Z M34.7800932,18.4745046 L34.6603428,18.482705 L28.2190606,19.273595 C27.6160756,19.3476322 27.1872788,19.8964671 27.2613161,20.499452 C27.3353533,21.1024369 27.8841882,21.5312338 28.4871731,21.4571965 L28.4871731,21.4571965 L34.9284554,20.6663065 C35.5314403,20.5922693 35.9602371,20.0434344 35.8861999,19.4404495 C35.8121626,18.8374645 35.2633277,18.4086677 34.6603428,18.482705 Z M419.745944,16.5602244 C419.014779,16.4710029 418.349725,16.9914005 418.260503,17.7225649 C418.171109,18.4551465 418.691896,19.1217262 419.424342,19.2122179 L419.424342,19.2122179 L427.426409,20.2008508 C427.42707,20.2009325 427.427731,20.2010136 427.428392,20.2010943 C428.159556,20.2903158 428.824611,19.7699183 428.913832,19.0387538 C429.003227,18.3061722 428.48244,17.6395926 427.749993,17.5491008 L427.749993,17.5491008 L419.747927,16.5604679 L419.747927,16.5604679 Z M46.9986786,16.974251 L46.8789282,16.9824513 L40.4376459,17.7733413 C39.834661,17.8473786 39.4058642,18.3962135 39.4799015,18.9991984 C39.5539387,19.6021833 40.1027736,20.0309801 40.7057585,19.9569429 L40.7057585,19.9569429 L47.1470408,19.1660529 C47.7500257,19.0920156 48.1788225,18.5431807 48.1047853,17.9401958 C48.030748,17.3372109 47.4819131,16.9084141 46.8789282,16.9824513 Z M404.653728,14.6956235 C403.922564,14.606402 403.257509,15.1267995 403.168288,15.857964 C403.078893,16.5905456 403.59968,17.2571252 404.332127,17.347617 L404.332127,17.347617 L412.334193,18.3362498 L412.334193,18.3362498 C413.067341,18.4257149 413.732395,17.9053173 413.821616,17.1741529 C413.911011,16.4415713 413.390224,15.7749916 412.657777,15.6844999 L412.657777,15.6844999 L404.655711,14.695867 L404.655711,14.695867 Z M36.5054221,8.6576523 L36.3871733,8.66574984 C35.7917493,8.73885871 35.3683293,9.28081166 35.4414382,9.87623564 L35.4414382,9.87623564 L36.2491377,16.4544208 C36.3222466,17.0498448 36.8641996,17.4732648 37.4596235,17.400156 C38.0550475,17.3270471 38.4784676,16.7850942 38.4053587,16.1896702 L38.4053587,16.1896702 L37.5976591,9.611485 C37.5245502,9.01606102 36.9825973,8.59264097 36.3871733,8.66574984 Z M417.603058,4.63132268 C416.868565,4.54169497 416.200483,5.06446163 416.110855,5.79895471 L416.110855,5.79895471 L415.141576,13.7421326 C415.051774,14.4780492 415.574932,15.1476635 416.310713,15.2385672 L416.310713,15.2385672 C417.047198,15.3284395 417.71528,14.8056729 417.804908,14.0711798 L417.804908,14.0711798 L418.774187,6.12800193 C418.863989,5.39208525 418.340831,4.722471 417.60505,4.63156727 L417.60505,4.63156727 Z" id="Combined-Shape" fill="url(#linearGradient-1)"></path>
    </g>
</svg>