<?xml version="1.0" encoding="UTF-8"?>
<svg width="842px" height="595px" viewBox="0 0 842 595" version="1.1" xmlns="http://www.w3.org/2000/svg" xmlns:xlink="http://www.w3.org/1999/xlink">
    <title>BG</title>
    <defs>
        <linearGradient x1="50%" y1="0%" x2="50%" y2="100%" id="linearGradient-1">
            <stop stop-color="#F3727D" offset="0%"></stop>
            <stop stop-color="#F69E83" offset="100%"></stop>
        </linearGradient>
    </defs>
    <g id="Page-1" stroke="none" stroke-width="1" fill="none" fill-rule="evenodd">
        <g id="BG">
            <rect id="Rectangle" fill="url(#linearGradient-1)" x="0" y="0" width="842" height="595"></rect>
            <g id="Shapes" transform="translate(573.473758, 111.632953)" fill="#FFFFFF" fill-opacity="0.7">
                <rect transform="translate(17.318585, 10.836744) rotate(-277.000000) translate(-17.318585, -10.836744) " x="16.2185854" y="6.49191661" width="2.2" height="8.68965517" rx="1.1"></rect>
                <path d="M11.9689449,13.373742 C12.5688404,13.373742 13.0551518,13.8600534 13.0551518,14.4599489 L13.0551518,21.0875351 C13.0551518,21.6874306 12.5688404,22.173742 11.9689449,22.173742 C11.3690494,22.173742 10.882738,21.6874306 10.882738,21.0875351 L10.882738,14.4599489 C10.882738,13.8600534 11.3690494,13.373742 11.9689449,13.373742 Z" transform="translate(11.968945, 17.773742) rotate(-547.000000) translate(-11.968945, -17.773742) "></path>
                <path d="M10.4496405,1 C11.049536,1 11.5358473,1.48631139 11.5358473,2.0862069 L11.5358473,8.7137931 C11.5358473,9.31368861 11.049536,9.8 10.4496405,9.8 C9.84974495,9.8 9.36343355,9.31368861 9.36343355,8.7137931 L9.36343355,2.0862069 C9.36343355,1.48631139 9.84974495,1 10.4496405,1 Z" transform="translate(10.449640, 5.400000) rotate(-547.000000) translate(-10.449640, -5.400000) "></path>
                <rect transform="translate(5.100000, 12.336998) rotate(-277.000000) translate(-5.100000, -12.336998) " x="4" y="7.99217025" width="2.2" height="8.68965517" rx="1.1"></rect>
            </g>
            <g id="Shapes" transform="translate(26.473758, 7.632953)" fill="#FFFFFF" fill-opacity="0.7">
                <rect transform="translate(17.318585, 10.836744) rotate(-277.000000) translate(-17.318585, -10.836744) " x="16.2185854" y="6.49191661" width="2.2" height="8.68965517" rx="1.1"></rect>
                <path d="M11.9689449,13.373742 C12.5688404,13.373742 13.0551518,13.8600534 13.0551518,14.4599489 L13.0551518,21.0875351 C13.0551518,21.6874306 12.5688404,22.173742 11.9689449,22.173742 C11.3690494,22.173742 10.882738,21.6874306 10.882738,21.0875351 L10.882738,14.4599489 C10.882738,13.8600534 11.3690494,13.373742 11.9689449,13.373742 Z" transform="translate(11.968945, 17.773742) rotate(-547.000000) translate(-11.968945, -17.773742) "></path>
                <path d="M10.4496405,1 C11.049536,1 11.5358473,1.48631139 11.5358473,2.0862069 L11.5358473,8.7137931 C11.5358473,9.31368861 11.049536,9.8 10.4496405,9.8 C9.84974495,9.8 9.36343355,9.31368861 9.36343355,8.7137931 L9.36343355,2.0862069 C9.36343355,1.48631139 9.84974495,1 10.4496405,1 Z" transform="translate(10.449640, 5.400000) rotate(-547.000000) translate(-10.449640, -5.400000) "></path>
                <rect transform="translate(5.100000, 12.336998) rotate(-277.000000) translate(-5.100000, -12.336998) " x="4" y="7.99217025" width="2.2" height="8.68965517" rx="1.1"></rect>
            </g>
            <g id="Shapes" transform="translate(294.590950, 228.772531) rotate(-330.000000) translate(-294.590950, -228.772531) translate(284.090950, 218.272531)" fill="#FFFFFF" fill-opacity="0.7">
                <rect transform="translate(13.386940, 5.344828) rotate(-334.000000) translate(-13.386940, -5.344828) " x="12.2869398" y="1" width="2.2" height="8.68965517" rx="1.1"></rect>
                <path d="M16.2911727,9.20957339 C16.8910682,9.20957339 17.3773796,9.69588478 17.3773796,10.2957803 L17.3773796,16.9233665 C17.3773796,17.523262 16.8910682,18.0095734 16.2911727,18.0095734 C15.6912772,18.0095734 15.2049658,17.523262 15.2049658,16.9233665 L15.2049658,10.2957803 C15.2049658,9.69588478 15.6912772,9.20957339 16.2911727,9.20957339 Z" transform="translate(16.291173, 13.609573) rotate(-604.000000) translate(-16.291173, -13.609573) "></path>
                <path d="M5.0862069,3.74454642 C5.6861024,3.74454642 6.17241379,4.23085782 6.17241379,4.83075332 L6.17241379,11.4583395 C6.17241379,12.058235 5.6861024,12.5445464 5.0862069,12.5445464 C4.48631139,12.5445464 4,12.058235 4,11.4583395 L4,4.83075332 C4,4.23085782 4.48631139,3.74454642 5.0862069,3.74454642 Z" transform="translate(5.086207, 8.144546) rotate(-604.000000) translate(-5.086207, -8.144546) "></path>
                <rect transform="translate(7.990440, 16.409292) rotate(-334.000000) translate(-7.990440, -16.409292) " x="6.8904398" y="12.0644646" width="2.2" height="8.68965517" rx="1.1"></rect>
            </g>
            <g id="Shapes" transform="translate(30.424020, 336.528375)" fill="#FFFFFF" fill-opacity="0.7">
                <rect transform="translate(12.583099, 18.289498) rotate(-189.000000) translate(-12.583099, -18.289498) " x="11.4330993" y="13.7377738" width="2.3" height="9.10344828" rx="1.15"></rect>
                <path d="M5.13793103,8.34004229 C5.76639299,8.34004229 6.27586207,8.84951137 6.27586207,9.47797332 L6.27586207,16.4021113 C6.27586207,17.0305732 5.76639299,17.5400423 5.13793103,17.5400423 C4.50946908,17.5400423 4,17.0305732 4,16.4021113 L4,9.47797332 C4,8.84951137 4.50946908,8.34004229 5.13793103,8.34004229 Z" transform="translate(5.137931, 12.940042) rotate(-459.000000) translate(-5.137931, -12.940042) "></path>
                <path d="M18.0108024,6.30117976 C18.6392644,6.30117976 19.1487334,6.81064884 19.1487334,7.43911079 L19.1487334,14.3632487 C19.1487334,14.9917107 18.6392644,15.5011798 18.0108024,15.5011798 C17.3823405,15.5011798 16.8728714,14.9917107 16.8728714,14.3632487 L16.8728714,7.43911079 C16.8728714,6.81064884 17.3823405,6.30117976 18.0108024,6.30117976 Z" transform="translate(18.010802, 10.901180) rotate(-459.000000) translate(-18.010802, -10.901180) "></path>
                <rect transform="translate(10.565634, 5.551724) rotate(-189.000000) translate(-10.565634, -5.551724) " x="9.41563414" y="1" width="2.3" height="9.10344828" rx="1.15"></rect>
            </g>
            <g id="Shapes" opacity="0.93" transform="translate(610.717029, 485.942429) rotate(-164.000000) translate(-610.717029, -485.942429) translate(598.717029, 473.442429)" fill="#FFFFFF" fill-opacity="0.7">
                <path d="M5.37291561,7.00283611 C6.03460525,7.0029753 6.57097584,7.53934608 6.5711148,8.20103572 L6.5726065,15.3041459 C6.57274539,15.9654761 6.03674397,16.5017027 5.37541384,16.5018415 C5.37524605,16.5018416 5.37507826,16.5018416 5.37491047,16.5018415 C4.71322083,16.5017024 4.17685025,15.9653316 4.17671129,15.3036419 L4.17521958,8.20053172 C4.1750807,7.53920158 4.71108211,7.00297499 5.37241225,7.00283611 C5.37258004,7.00283608 5.37274783,7.00283608 5.37291561,7.00283611 Z" transform="translate(5.373913, 11.752339) rotate(-83.000000) translate(-5.373913, -11.752339) "></path>
                <path d="M12.882114,1.0415429 C13.5376079,1.04140524 14.0691023,1.57267642 14.0692399,2.2281703 C14.06924,2.2283366 14.06924,2.22850291 14.0692399,2.22866922 L14.0677235,9.43749873 C14.0675855,10.0933489 13.5359482,10.624986 12.880098,10.6251238 C12.2246041,10.6252614 11.6931098,10.0939902 11.6929721,9.43849637 C11.6929721,9.43833006 11.6929721,9.43816375 11.6929721,9.43799745 L11.6944886,2.22916794 C11.6946265,1.57331773 12.2262638,1.04168063 12.882114,1.0415429 Z" transform="translate(12.881106, 5.833333) rotate(-353.000000) translate(-12.881106, -5.833333) "></path>
                <path d="M11.224691,14.5167354 C11.8801848,14.5165978 12.4116792,15.047869 12.4118169,15.7033628 C12.4118169,15.7035291 12.4118169,15.7036955 12.4118169,15.7038618 L12.4103004,22.9126913 C12.4101624,23.5685415 11.8785252,24.1001786 11.222675,24.1003163 C10.5671811,24.100454 10.0356867,23.5691828 10.0355491,22.9136889 C10.035549,22.9135226 10.035549,22.9133563 10.0355491,22.91319 L10.0370655,15.7043605 C10.0372035,15.0485103 10.5688408,14.5168732 11.224691,14.5167354 Z" transform="translate(11.223683, 19.308526) rotate(-353.000000) translate(-11.223683, -19.308526) "></path>
                <path d="M18.7298785,8.64001766 C19.3915682,8.64015686 19.9279387,9.17652764 19.9280777,9.83821727 L19.9295694,16.9413275 C19.9297083,17.6026576 19.3937069,18.1388842 18.7323767,18.1390231 C18.732209,18.1390231 18.7320412,18.1390231 18.7318734,18.1390231 C18.0701837,18.1388839 17.5338132,17.6025131 17.5336742,16.9408235 L17.5321825,9.83771327 C17.5320436,9.17638314 18.068045,8.64015655 18.7293752,8.64001766 C18.7295429,8.64001763 18.7297107,8.64001763 18.7298785,8.64001766 Z" transform="translate(18.730876, 13.389520) rotate(-83.000000) translate(-18.730876, -13.389520) "></path>
            </g>
            <g id="Shapes" opacity="0.97" transform="translate(794.233621, 84.001271) rotate(-145.000000) translate(-794.233621, -84.001271) translate(782.733621, 72.001271)" fill="#FFFFFF" fill-opacity="0.7">
                <rect transform="translate(5.150000, 11.282245) rotate(-83.000000) translate(-5.150000, -11.282245) " x="4" y="6.73052114" width="2.3" height="9.10344828" rx="1.15"></rect>
                <path d="M12.3443933,1 C12.9728552,1 13.4823243,1.50946908 13.4823243,2.13793103 L13.4823243,9.06206897 C13.4823243,9.69053092 12.9728552,10.2 12.3443933,10.2 C11.7159313,10.2 11.2064622,9.69053092 11.2064622,9.06206897 L11.2064622,2.13793103 C11.2064622,1.50946908 11.7159313,1 12.3443933,1 Z" transform="translate(12.344393, 5.600000) rotate(-353.000000) translate(-12.344393, -5.600000) "></path>
                <path d="M10.7560295,13.9361848 C11.3844915,13.9361848 11.8939605,14.4456539 11.8939605,15.0741159 L11.8939605,21.9982538 C11.8939605,22.6267158 11.3844915,23.1361848 10.7560295,23.1361848 C10.1275675,23.1361848 9.61809847,22.6267158 9.61809847,21.9982538 L9.61809847,15.0741159 C9.61809847,14.4456539 10.1275675,13.9361848 10.7560295,13.9361848 Z" transform="translate(10.756030, 18.536185) rotate(-353.000000) translate(-10.756030, -18.536185) "></path>
                <rect transform="translate(17.950423, 12.853940) rotate(-83.000000) translate(-17.950423, -12.853940) " x="16.8004228" y="8.30221543" width="2.3" height="9.10344828" rx="1.15"></rect>
            </g>
            <g id="Shapes" opacity="0.86" transform="translate(482.831209, 383.420159) rotate(-98.000000) translate(-482.831209, -383.420159) translate(469.831209, 369.920159)" fill="#FFFFFF" fill-opacity="0.7">
                <path d="M5.81874684,7.54746606 C6.53356039,7.54788373 7.11292642,8.12725134 7.11334215,8.84206489 L7.11782176,16.544499 C7.11823686,17.258236 6.53997518,17.8371707 5.82623814,17.8375858 C5.8257359,17.8375861 5.82523366,17.8375861 5.82473142,17.8375858 C5.10991787,17.8371681 4.53055184,17.2578005 4.53013611,16.542987 L4.5256565,8.84055288 C4.5252414,8.12681584 5.10350308,7.54788115 5.81724012,7.54746605 C5.81774236,7.54746576 5.8182446,7.54746576 5.81874684,7.54746606 Z" transform="translate(5.821739, 12.692526) rotate(-83.000000) translate(-5.821739, -12.692526) "></path>
                <path d="M13.9575556,1.1246287 C14.6671123,1.12421603 15.2426563,1.69909091 15.243069,2.40864769 C15.2430692,2.40914699 15.2430692,2.40964629 15.2430689,2.41014559 L15.2385241,10.1883583 C15.2381088,10.8989852 14.6621345,11.474958 13.9515075,11.4753713 C13.2419507,11.475784 12.6664068,10.9009091 12.6659941,10.1913523 C12.6659938,10.190853 12.6659938,10.1903537 12.6659941,10.1898544 L12.670539,2.41164174 C12.6709542,1.70101476 13.2469286,1.12504199 13.9575556,1.1246287 Z" transform="translate(13.954532, 6.300000) rotate(-353.000000) translate(-13.954532, -6.300000) "></path>
                <path d="M12.1620139,15.6778366 C12.8715707,15.677424 13.4471146,16.2522989 13.4475273,16.9618556 C13.4475276,16.9623549 13.4475276,16.9628542 13.4475273,16.9633535 L13.4429824,24.7415662 C13.4425672,25.4521932 12.8665928,26.028166 12.1559659,26.0285793 C11.4464091,26.0289919 10.8708651,25.454117 10.8704525,24.7445603 C10.8704522,24.744061 10.8704522,24.7435617 10.8704525,24.7430624 L10.8749973,16.9648497 C10.8754126,16.2542227 11.4513869,15.6782499 12.1620139,15.6778366 Z" transform="translate(12.158990, 20.853208) rotate(-353.000000) translate(-12.158990, -20.853208) "></path>
                <path d="M20.28879,9.31562213 C21.0036035,9.31603981 21.5829696,9.89540742 21.5833853,10.610221 L21.5878649,18.3126551 C21.58828,19.0263921 21.0100183,19.6053268 20.2962813,19.6057419 C20.295779,19.6057422 20.2952768,19.6057422 20.2947746,19.6057419 C19.579961,19.6053242 19.000595,19.0259566 19.0001793,18.3111431 L18.9956996,10.608709 C18.9952845,9.89497192 19.5735462,9.31603723 20.2872833,9.31562213 C20.2877855,9.31562184 20.2882877,9.31562184 20.28879,9.31562213 Z" transform="translate(20.291782, 14.460682) rotate(-83.000000) translate(-20.291782, -14.460682) "></path>
            </g>
            <g id="Shapes" opacity="0.88" transform="translate(416.120501, 17.389415) rotate(-270.000000) translate(-416.120501, -17.389415) translate(402.620501, 3.389415)" fill="#FFFFFF" fill-opacity="0.7">
                <path d="M6.04166246,7.81978103 C6.78303776,7.82033798 7.38390125,8.42120417 7.38445486,9.16257948 L7.39043035,17.1646755 C7.3909829,17.9046167 6.79159001,18.5049054 6.05164886,18.505458 C6.05097987,18.5054585 6.05031088,18.5054585 6.04964189,18.5054579 C5.30826658,18.504901 4.7074031,17.9040348 4.70684949,17.1626595 L4.70087399,9.16056346 C4.70032145,8.42062231 5.29971434,7.82033357 6.03965549,7.81978102 C6.04032448,7.81978052 6.04099347,7.81978053 6.04166246,7.81978103 Z" transform="translate(6.045652, 13.162619) rotate(-83.000000) translate(-6.045652, -13.162619) "></path>
                <path d="M14.4952763,1.1661716 C15.2318641,1.16562156 15.8294325,1.76229807 15.8299825,2.4988859 C15.829983,2.49955186 15.829983,2.50021782 15.8299825,2.50088378 L15.8239253,10.563788 C15.8233709,11.3018035 15.2252277,11.899944 14.4872123,11.9004951 C13.7506244,11.9010451 13.1530561,11.3043686 13.1525061,10.5677808 C13.1525056,10.5671148 13.1525056,10.5664488 13.1525061,10.5657829 L13.1585633,2.50287864 C13.1591177,1.76486315 13.7572608,1.1667227 14.4952763,1.1661716 Z" transform="translate(14.491244, 6.533333) rotate(-353.000000) translate(-14.491244, -6.533333) "></path>
                <path d="M12.6306754,16.2583872 C13.3672632,16.2578372 13.9648315,16.8545137 13.9653815,17.5911016 C13.965382,17.5917675 13.965382,17.5924335 13.9653815,17.5930994 L13.9593244,25.6560037 C13.9587699,26.3940192 13.3606268,26.9921596 12.6226113,26.9927107 C11.8860235,26.9932608 11.2884552,26.3965842 11.2879051,25.6599964 C11.2879046,25.6593305 11.2879046,25.6586645 11.2879051,25.6579985 L11.2939623,17.5950943 C11.2945167,16.8570788 11.8926599,16.2589384 12.6306754,16.2583872 Z" transform="translate(12.626643, 21.625549) rotate(-353.000000) translate(-12.626643, -21.625549) "></path>
                <path d="M21.0682457,9.65342437 C21.809621,9.65398132 22.4104845,10.2548475 22.4110381,10.9962228 L22.4170136,18.9983189 C22.4175662,19.73826 21.8181733,20.3385487 21.0782321,20.3391013 C21.0775631,20.3391018 21.0768941,20.3391018 21.0762252,20.3391013 C20.3348499,20.3385443 19.7339864,19.7376782 19.7334328,18.9963028 L19.7274573,10.9942068 C19.7269047,10.2542657 20.3262976,9.65397691 21.0662388,9.65342436 C21.0669077,9.65342386 21.0675767,9.65342387 21.0682457,9.65342437 Z" transform="translate(21.072235, 14.996263) rotate(-83.000000) translate(-21.072235, -14.996263) "></path>
            </g>
            <g id="Shapes" opacity="0.87" transform="translate(42.879496, 559.026810) rotate(-305.000000) translate(-42.879496, -559.026810) translate(33.379496, 549.526810)" fill="#FFFFFF" fill-opacity="0.7">
                <path d="M4.23539667,5.17398448 C4.74004116,5.17663678 5.14845058,5.58513304 5.15099558,6.08977808 L5.1797092,11.783353 C5.18222059,12.2813323 4.7805645,12.6870601 4.28258523,12.6895715 C4.27948983,12.6895871 4.27639437,12.6895868 4.27329898,12.6895705 C3.76865449,12.6869182 3.36024507,12.278422 3.35770007,11.7737769 L3.32898646,6.080202 C3.32647507,5.58222273 3.72813115,5.17649488 4.22611042,5.17398349 C4.22920582,5.17396788 4.23230128,5.17396821 4.23539667,5.17398448 Z" transform="translate(4.254348, 8.931778) rotate(-83.000000) translate(-4.254348, -8.931778) "></path>
                <path d="M10.2166944,0.789315078 C10.7302212,0.78672528 11.1486164,1.20092155 11.1512062,1.71444834 C11.1512223,1.71764038 11.1512219,1.72083248 11.1512052,1.72402452 L11.1227759,7.13316657 C11.1200408,7.65356667 10.6987908,8.07472712 10.1783901,8.07735159 C9.66486333,8.07994139 9.24646817,7.66574512 9.24387837,7.15221833 C9.24386228,7.14902629 9.24386262,7.14583418 9.24387939,7.14264215 L9.27230864,1.7335001 C9.27504375,1.2131 9.69629376,0.791939542 10.2166944,0.789315078 Z" transform="translate(10.197542, 4.433333) rotate(-353.000000) translate(-10.197542, -4.433333) "></path>
                <path d="M8.90456783,11.0304614 C9.41809462,11.0278716 9.83648978,11.4420679 9.83907958,11.9555947 C9.83909567,11.9587867 9.83909534,11.9619788 9.83907856,11.9651709 L9.81064931,17.3743129 C9.8079142,17.894713 9.38666419,18.3158735 8.86626353,18.3184979 C8.35273674,18.3210877 7.93434158,17.9068915 7.93175178,17.3933647 C7.93173568,17.3901726 7.93173602,17.3869805 7.9317528,17.3837885 L7.96018204,11.9746464 C7.96291715,11.4542463 8.38416716,11.0330859 8.90456783,11.0304614 Z" transform="translate(8.885416, 14.674480) rotate(-353.000000) translate(-8.885416, -14.674480) "></path>
                <path d="M14.809659,6.41824246 C15.3143035,6.42089476 15.7227129,6.82939102 15.7252579,7.33403606 L15.7539715,13.027611 C15.7564829,13.5255903 15.3548268,13.9313181 14.8568475,13.9338295 C14.8537521,13.9338451 14.8506567,13.9338448 14.8475613,13.9338285 C14.3429168,13.9311762 13.9345074,13.52268 13.9319624,13.0180349 L13.9032488,7.32445998 C13.9007374,6.82648071 14.3023934,6.42075286 14.8003727,6.41824147 C14.8034681,6.41822586 14.8065636,6.41822619 14.809659,6.41824246 Z" transform="translate(14.828610, 10.176035) rotate(-83.000000) translate(-14.828610, -10.176035) "></path>
            </g>
            <g id="Shapes" transform="translate(213.127635, 375.831328) rotate(-334.000000) translate(-213.127635, -375.831328) translate(203.127635, 365.331328)" fill="#FFFFFF" fill-opacity="0.7">
                <path d="M4.48125316,5.91357622 C5.03610146,5.91315932 5.48623284,6.36261477 5.48664974,6.91746307 C5.48665012,6.91796784 5.48665012,6.91847261 5.48664974,6.91897739 L5.48218635,12.8234398 C5.4817661,13.3793703 5.031199,13.8299353 4.47526858,13.830353 C3.92042028,13.8307699 3.4702889,13.3813145 3.46987199,12.8264662 C3.46987162,12.8259614 3.46987162,12.8254566 3.469872,12.8249518 L3.47433539,6.9204894 C3.47475564,6.36455898 3.92532274,5.91399394 4.48125316,5.91357622 Z" transform="translate(4.478261, 9.871965) rotate(-83.000000) translate(-4.478261, -9.871965) "></path>
                <path d="M10.731231,0.875371303 C11.2780115,0.875784634 11.7211608,1.31893597 11.7215717,1.86571648 L11.7261326,7.93577967 C11.7265426,8.48149587 11.2844846,8.92421866 10.7387684,8.9246287 C10.738272,8.92462907 10.7377755,8.92462907 10.737279,8.9246287 C10.1904985,8.92421537 9.74734923,8.48106403 9.74693839,7.93428352 L9.74237747,1.86422033 C9.74196743,1.31850413 10.1840254,0.87578134 10.7297416,0.8753713 C10.7302381,0.875370927 10.7307345,0.875370928 10.731231,0.875371303 Z" transform="translate(10.734255, 4.900000) rotate(-353.000000) translate(-10.734255, -4.900000) "></path>
                <path d="M9.35004511,12.194533 C9.89682562,12.1949464 10.3399749,12.6380977 10.3403858,13.1848782 L10.3449467,19.2549414 C10.3453567,19.8006576 9.90329875,20.2433804 9.35758255,20.2437904 C9.35708608,20.2437908 9.35658962,20.2437908 9.35609316,20.2437904 C8.80931265,20.2433771 8.36616334,19.8002258 8.3657525,19.2534453 L8.36119157,13.1833821 C8.36078153,12.6376659 8.80283952,12.1949431 9.34855572,12.194533 C9.34905218,12.1945327 9.34954865,12.1945327 9.35004511,12.194533 Z" transform="translate(9.353069, 16.219162) rotate(-353.000000) translate(-9.353069, -16.219162) "></path>
                <path d="M15.6120556,7.28880872 C16.1669039,7.28839182 16.6170353,7.73784728 16.6174522,8.29269558 C16.6174525,8.29320035 16.6174525,8.29370512 16.6174522,8.29420989 L16.6129888,14.1986723 C16.6125685,14.7546028 16.1620014,15.2051678 15.606071,15.2055855 C15.0512227,15.2060024 14.6010913,14.756547 14.6006744,14.2016987 C14.600674,14.2011939 14.600674,14.2006891 14.6006744,14.2001844 L14.6051378,8.2957219 C14.6055581,7.73979148 15.0561252,7.28922644 15.6120556,7.28880872 Z" transform="translate(15.609063, 11.247197) rotate(-83.000000) translate(-15.609063, -11.247197) "></path>
            </g>
            <g id="Shapes" transform="translate(819.367240, 381.239316) rotate(-315.000000) translate(-819.367240, -381.239316) translate(807.867240, 369.239316)" fill="#FFFFFF" fill-opacity="0.7">
                <rect transform="translate(5.150000, 11.282245) rotate(-83.000000) translate(-5.150000, -11.282245) " x="4" y="6.73052114" width="2.3" height="9.10344828" rx="1.15"></rect>
                <path d="M12.3443933,1 C12.9728552,1 13.4823243,1.50946908 13.4823243,2.13793103 L13.4823243,9.06206897 C13.4823243,9.69053092 12.9728552,10.2 12.3443933,10.2 C11.7159313,10.2 11.2064622,9.69053092 11.2064622,9.06206897 L11.2064622,2.13793103 C11.2064622,1.50946908 11.7159313,1 12.3443933,1 Z" transform="translate(12.344393, 5.600000) rotate(-353.000000) translate(-12.344393, -5.600000) "></path>
                <path d="M10.7560295,13.9361848 C11.3844915,13.9361848 11.8939605,14.4456539 11.8939605,15.0741159 L11.8939605,21.9982538 C11.8939605,22.6267158 11.3844915,23.1361848 10.7560295,23.1361848 C10.1275675,23.1361848 9.61809847,22.6267158 9.61809847,21.9982538 L9.61809847,15.0741159 C9.61809847,14.4456539 10.1275675,13.9361848 10.7560295,13.9361848 Z" transform="translate(10.756030, 18.536185) rotate(-353.000000) translate(-10.756030, -18.536185) "></path>
                <rect transform="translate(17.950423, 12.853940) rotate(-83.000000) translate(-17.950423, -12.853940) " x="16.8004228" y="8.30221543" width="2.3" height="9.10344828" rx="1.15"></rect>
            </g>
            <g id="Shapes" transform="translate(761.335230, 508.411098)" fill="#FFFFFF" fill-opacity="0.7">
                <circle transform="translate(31.123169, 19.938740) rotate(-259.000000) translate(-31.123169, -19.938740) " cx="31.1231689" cy="19.9387402" r="2.35714286"></circle>
                <circle transform="translate(3.357143, 14.541572) rotate(-259.000000) translate(-3.357143, -14.541572) " cx="3.35714286" cy="14.5415715" r="2.35714286"></circle>
                <circle transform="translate(19.938740, 3.357143) rotate(-259.000000) translate(-19.938740, -3.357143) " cx="19.9387402" cy="3.35714286" r="2.35714286"></circle>
                <circle transform="translate(14.541572, 31.123169) rotate(-259.000000) translate(-14.541572, -31.123169) " cx="14.5415715" cy="31.1231689" r="2.35714286"></circle>
            </g>
            <g id="Shapes" opacity="0.98" transform="translate(116.251922, 202.643519) rotate(-148.000000) translate(-116.251922, -202.643519) translate(102.751922, 189.143519)" fill="#FFFFFF" fill-opacity="0.7">
                <circle transform="translate(21.608453, 3.125616) rotate(-322.000000) translate(-21.608453, -3.125616) " cx="21.6084526" cy="3.12561576" r="2.19458128"></circle>
                <circle transform="translate(5.395023, 23.877860) rotate(-322.000000) translate(-5.395023, -23.877860) " cx="5.39502276" cy="23.8778596" r="2.19458128"></circle>
                <circle transform="translate(3.125616, 5.395023) rotate(-322.000000) translate(-3.125616, -5.395023) " cx="3.12561576" cy="5.39502276" r="2.19458128"></circle>
                <circle transform="translate(23.877860, 21.608453) rotate(-322.000000) translate(-23.877860, -21.608453) " cx="23.8778596" cy="21.6084526" r="2.19458128"></circle>
            </g>
            <g id="Shapes" opacity="0.95" transform="translate(450.287626, 546.199464) rotate(-175.000000) translate(-450.287626, -546.199464) translate(434.287626, 530.199464)" fill="#FFFFFF" fill-opacity="0.7">
                <circle transform="translate(25.610018, 3.704433) rotate(-322.000000) translate(-25.610018, -3.704433) " cx="25.6100178" cy="3.7044335" r="2.60098522"></circle>
                <circle transform="translate(6.394101, 28.299685) rotate(-322.000000) translate(-6.394101, -28.299685) " cx="6.39410105" cy="28.2996854" r="2.60098522"></circle>
                <circle transform="translate(3.704433, 6.394101) rotate(-322.000000) translate(-3.704433, -6.394101) " cx="3.7044335" cy="6.39410105" r="2.60098522"></circle>
                <circle transform="translate(28.299685, 25.610018) rotate(-322.000000) translate(-28.299685, -25.610018) " cx="28.2996854" cy="25.6100178" r="2.60098522"></circle>
            </g>
            <g id="Shapes" opacity="0.9" transform="translate(232.634657, 64.550278) rotate(-349.000000) translate(-232.634657, -64.550278) translate(222.134657, 54.050278)" fill="#FFFFFF" fill-opacity="0.7">
                <circle transform="translate(16.806574, 2.431034) rotate(-322.000000) translate(-16.806574, -2.431034) " cx="16.8065742" cy="2.43103448" r="1.70689655"></circle>
                <circle transform="translate(4.196129, 18.571669) rotate(-322.000000) translate(-4.196129, -18.571669) " cx="4.19612882" cy="18.5716685" r="1.70689655"></circle>
                <circle transform="translate(2.431034, 4.196129) rotate(-322.000000) translate(-2.431034, -4.196129) " cx="2.43103448" cy="4.19612882" r="1.70689655"></circle>
                <circle transform="translate(18.571669, 16.806574) rotate(-322.000000) translate(-18.571669, -16.806574) " cx="18.5716685" cy="16.8065742" r="1.70689655"></circle>
            </g>
            <g id="Shapes" transform="translate(719.281567, 20.848069)" fill="#FFFFFF" fill-opacity="0.7">
                <circle transform="translate(2.714286, 3.221941) rotate(-47.000000) translate(-2.714286, -3.221941) " cx="2.71428571" cy="3.22194066" r="1.71428571"></circle>
                <circle transform="translate(17.759276, 17.251621) rotate(-47.000000) translate(-17.759276, -17.251621) " cx="17.7592761" cy="17.2516212" r="1.71428571"></circle>
                <circle transform="translate(3.221941, 17.759276) rotate(-47.000000) translate(-3.221941, -17.759276) " cx="3.22194066" cy="17.7592761" r="1.71428571"></circle>
                <circle transform="translate(17.251621, 2.714286) rotate(-47.000000) translate(-17.251621, -2.714286) " cx="17.2516212" cy="2.71428571" r="1.71428571"></circle>
            </g>
            <g id="Shapes" transform="translate(683.473360, 261.482765)" fill="#FFFFFF" fill-opacity="0.7">
                <circle transform="translate(19.214535, 3.428571) rotate(-355.000000) translate(-19.214535, -3.428571) " cx="19.214535" cy="3.42857143" r="2.42857143"></circle>
                <circle transform="translate(16.674568, 32.460531) rotate(-355.000000) translate(-16.674568, -32.460531) " cx="16.6745676" cy="32.4605312" r="2.42857143"></circle>
                <circle transform="translate(3.428571, 16.674568) rotate(-355.000000) translate(-3.428571, -16.674568) " cx="3.42857143" cy="16.6745676" r="2.42857143"></circle>
                <circle transform="translate(32.460531, 19.214535) rotate(-355.000000) translate(-32.460531, -19.214535) " cx="32.4605312" cy="19.214535" r="2.42857143"></circle>
            </g>
            <g id="Shapes" transform="translate(457.473360, 228.482765) rotate(-285.000000) translate(-457.473360, -228.482765) translate(439.473360, 210.482765)" fill="#FFFFFF" fill-opacity="0.7">
                <circle transform="translate(19.214535, 3.428571) rotate(-355.000000) translate(-19.214535, -3.428571) " cx="19.214535" cy="3.42857143" r="2.42857143"></circle>
                <circle transform="translate(16.674568, 32.460531) rotate(-355.000000) translate(-16.674568, -32.460531) " cx="16.6745676" cy="32.4605312" r="2.42857143"></circle>
                <circle transform="translate(3.428571, 16.674568) rotate(-355.000000) translate(-3.428571, -16.674568) " cx="3.42857143" cy="16.6745676" r="2.42857143"></circle>
                <circle transform="translate(32.460531, 19.214535) rotate(-355.000000) translate(-32.460531, -19.214535) " cx="32.4605312" cy="19.214535" r="2.42857143"></circle>
            </g>
            <g id="Shapes" transform="translate(182.772120, 487.340775)" fill="#FFFFFF" fill-opacity="0.7">
                <circle transform="translate(22.268479, 28.780174) rotate(-206.000000) translate(-22.268479, -28.780174) " cx="22.2684792" cy="28.7801745" r="2.35714286"></circle>
                <circle transform="translate(9.868838, 3.357143) rotate(-206.000000) translate(-9.868838, -3.357143) " cx="9.86883815" cy="3.35714286" r="2.35714286"></circle>
                <circle transform="translate(28.780174, 9.868838) rotate(-206.000000) translate(-28.780174, -9.868838) " cx="28.7801745" cy="9.86883815" r="2.35714286"></circle>
                <circle transform="translate(3.357143, 22.268479) rotate(-206.000000) translate(-3.357143, -22.268479) " cx="3.35714286" cy="22.2684792" r="2.35714286"></circle>
            </g>
        </g>
    </g>
</svg>