<?xml version="1.0" encoding="UTF-8"?>
<svg width="26px" height="26px" viewBox="0 0 26 26" version="1.1" xmlns="http://www.w3.org/2000/svg" xmlns:xlink="http://www.w3.org/1999/xlink">
    <title>error-circle</title>
    <g id="Page-1" stroke="none" stroke-width="1" fill="none" fill-rule="evenodd">
        <g id="101_Home" transform="translate(-119.000000, -520.000000)">
            <g id="Stockholm-Icons-/-White-/-Code-/-Error-circle" transform="translate(116.727273, 517.727273)">
                <rect id="bound" x="0" y="0" width="30.5454545" height="30.5454545"></rect>
                <circle id="Oval-5" fill="#FFFFFF" opacity="0.439999998" cx="15.2727273" cy="15.2727273" r="12.7272727"></circle>
                <path d="M11.5252886,9.72538043 L15.3174545,13.5174545 L19.1106159,9.72538043 C19.5011402,9.33485614 20.1343052,9.33485614 20.5248295,9.72538043 L20.9105241,10.111075 C21.3010484,10.5015993 21.3010484,11.1347643 20.9105241,11.5252886 L17.1174545,15.3174545 L20.9105241,19.1106159 C21.3010484,19.5011402 21.3010484,20.1343052 20.9105241,20.5248295 L20.5248295,20.9105241 C20.1343052,21.3010484 19.5011402,21.3010484 19.1106159,20.9105241 L15.3174545,17.1174545 L11.5252886,20.9105241 C11.1347643,21.3010484 10.5015993,21.3010484 10.111075,20.9105241 L9.72538043,20.5248295 C9.33485614,20.1343052 9.33485614,19.5011402 9.72538043,19.1106159 L13.5174545,15.3174545 L9.72538043,11.5252886 C9.33485614,11.1347643 9.33485614,10.5015993 9.72538043,10.111075 L10.111075,9.72538043 C10.5015993,9.33485614 11.1347643,9.33485614 11.5252886,9.72538043 Z" id="Combined-Shape" fill="#FFFFFF"></path>
            </g>
        </g>
    </g>
</svg>