<?xml version="1.0" encoding="UTF-8"?>
<svg width="24px" height="22px" viewBox="0 0 24 22" version="1.1" xmlns="http://www.w3.org/2000/svg" xmlns:xlink="http://www.w3.org/1999/xlink">
    <title>heart-circle</title>
    <g id="Page-1" stroke="none" stroke-width="1" fill="none" fill-rule="evenodd">
        <g id="101_Home" transform="translate(-232.000000, -522.000000)">
            <g id="Stockholm-Icons-/-White-/-General-/-Half-heart" transform="translate(228.727273, 517.727273)">
                <polygon id="Shape" points="0 0 30.5454545 0 30.5454545 30.5454545 0 30.5454545"></polygon>
                <path d="M21,5.09090909 C18.9515455,5.09090909 16.5559545,7.56798547 15.2727273,9.16363636 C13.9895,7.56798547 11.5939091,5.09090909 9.54545455,5.09090909 C5.91945455,5.09090909 3.81818182,8.10768657 3.81818182,11.9472215 C3.81818182,16.200589 7.63636364,20.7030303 15.2727273,25.4545455 C22.9090909,20.7030303 26.7272727,16.2909091 26.7272727,12.2181818 C26.7272727,8.37864685 24.626,5.09090909 21,5.09090909 Z" id="Shape" fill="#FFFFFF" fill-rule="nonzero" opacity="0.439999998"></path>
                <path d="M10.1818182,5.09090909 C11.5939091,5.09090909 13.9895,7.56798547 15.2727273,9.16363636 L15.2727273,9.16363636 L15.2727273,25.4545455 C7.63636364,20.7030303 3.81818182,16.1777778 3.81818182,11.8787879 C3.81818182,8.10768657 5.91945455,5.09090909 10.1818182,5.09090909 Z" id="Combined-Shape" fill="#FFFFFF" fill-rule="nonzero"></path>
            </g>
        </g>
    </g>
</svg>