<?xml version="1.0" encoding="UTF-8"?>
<svg width="250px" height="239px" viewBox="0 0 250 239" version="1.1" xmlns="http://www.w3.org/2000/svg" xmlns:xlink="http://www.w3.org/1999/xlink">
    <title>home-image</title>
    <defs>
        <linearGradient x1="135.164991%" y1="24.4093361%" x2="20.4796008%" y2="55.4484101%" id="linearGradient-1">
            <stop stop-color="#A683D5" offset="0%"></stop>
            <stop stop-color="#FB5C7D" offset="100%"></stop>
        </linearGradient>
        <linearGradient x1="18.0321815%" y1="69.9000045%" x2="89.9092479%" y2="32.6963005%" id="linearGradient-2">
            <stop stop-color="#EF6481" offset="0%"></stop>
            <stop stop-color="#AFA1FF" offset="100%"></stop>
        </linearGradient>
        <path d="M19.3330261,20.6637679 C28.9213722,23.9362528 38.1627251,22.3619227 39.9741655,17.1474032 C41.7856059,11.9328837 35.4811782,5.05280727 25.8928321,1.78032237 C16.304486,-1.49216253 7.06313307,0.0821675608 5.25169267,5.29668705 C3.44025227,10.5112065 9.74467997,17.391283 19.3330261,20.6637679 Z" id="path-3"></path>
        <filter x="-32.5%" y="-29.2%" width="165.1%" height="203.2%" filterUnits="objectBoundingBox" id="filter-4">
            <feOffset dx="0" dy="5" in="SourceAlpha" result="shadowOffsetOuter1"></feOffset>
            <feGaussianBlur stdDeviation="3" in="shadowOffsetOuter1" result="shadowBlurOuter1"></feGaussianBlur>
            <feColorMatrix values="0 0 0 0 0.25162069   0 0 0 0 0.181192893   0 0 0 0 0.319143282  0 0 0 0.109233469 0" type="matrix" in="shadowBlurOuter1"></feColorMatrix>
        </filter>
        <linearGradient x1="135.164991%" y1="12.6042803%" x2="20.4796008%" y2="57.9617792%" id="linearGradient-5">
            <stop stop-color="#A683D5" offset="0%"></stop>
            <stop stop-color="#FB5C7D" offset="100%"></stop>
        </linearGradient>
        <linearGradient x1="18.0321815%" y1="81.5416356%" x2="89.9092479%" y2="22.5735246%" id="linearGradient-6">
            <stop stop-color="#EF6481" offset="0%"></stop>
            <stop stop-color="#AFA1FF" offset="100%"></stop>
        </linearGradient>
        <path d="M175.015194,175.374372 C200.797412,173.674106 207.957248,157.500005 196.529683,144.210494 C179.586929,124.507181 136.709863,104.564318 174.110564,94.1722607 C236.737327,76.770958 194.033946,36.5290947 135.672109,36.5290947 C77.3102731,36.5290947 25.9722915,71.4406751 29.9986569,106.978063 C34.0250223,142.515451 111.007704,179.59549 175.015194,175.374372 Z" id="path-7"></path>
        <filter x="-8.6%" y="-7.2%" width="117.2%" height="121.6%" filterUnits="objectBoundingBox" id="filter-8">
            <feMorphology radius="3.5580287" operator="dilate" in="SourceAlpha" result="shadowSpreadOuter1"></feMorphology>
            <feOffset dx="0" dy="5" in="shadowSpreadOuter1" result="shadowOffsetOuter1"></feOffset>
            <feGaussianBlur stdDeviation="3" in="shadowOffsetOuter1" result="shadowBlurOuter1"></feGaussianBlur>
            <feComposite in="shadowBlurOuter1" in2="SourceAlpha" operator="out" result="shadowBlurOuter1"></feComposite>
            <feColorMatrix values="0 0 0 0 0.25162069   0 0 0 0 0.181192893   0 0 0 0 0.319143282  0 0 0 0.109233469 0" type="matrix" in="shadowBlurOuter1"></feColorMatrix>
        </filter>
        <linearGradient x1="32.0631042%" y1="-25.6143392%" x2="50%" y2="105.615962%" id="linearGradient-9">
            <stop stop-color="#DBEDF2" offset="0%"></stop>
            <stop stop-color="#FFFFFF" offset="100%"></stop>
        </linearGradient>
        <linearGradient x1="45.6308968%" y1="-25.6143392%" x2="50%" y2="105.615962%" id="linearGradient-10">
            <stop stop-color="#DBEDF2" offset="0%"></stop>
            <stop stop-color="#FFFFFF" offset="100%"></stop>
        </linearGradient>
        <linearGradient x1="49.1916929%" y1="10.5960702%" x2="55.8426866%" y2="194.813981%" id="linearGradient-11">
            <stop stop-color="#85BECC" offset="0%"></stop>
            <stop stop-color="#B3B3B3" offset="100%"></stop>
        </linearGradient>
        <path d="M21.2573974,0.0346743048 C24.7492919,8.03436727 26.9931309,15.1356656 27.9889145,21.3385692 C28.9846981,27.5414728 29.1825032,40.9166411 28.5823298,61.464074 C27.4576206,62.9581291 25.9556212,61.5060674 24.0763317,57.1078889 C22.9288801,34.9773045 22.3551543,23.6717341 22.3551543,23.1911778 C22.3551543,22.7106216 20.4081769,15.3672216 16.5142222,1.16097809 L21.2573974,0.0346743048 Z" id="path-12"></path>
        <linearGradient x1="46.5946323%" y1="10.5960702%" x2="74.6150223%" y2="194.813981%" id="linearGradient-14">
            <stop stop-color="#A6EEFF" offset="0%"></stop>
            <stop stop-color="#FFFFFF" offset="100%"></stop>
        </linearGradient>
        <path d="M10.6364074,4.52168301 C9.05674731,8.2432877 9.89237025,12.3412147 13.1432762,16.8154641 C16.3941821,21.2897135 19.9240247,25.4023008 23.7328039,29.1532259 C17.796586,38.6597034 13.8181498,45.6153633 11.7974953,50.0202055 C12.0469508,54.3625356 12.7667298,55.9110336 13.9568323,54.6656994 C15.741986,52.7976981 30.0423743,34.8955906 31.683603,31.0335025 C33.3248317,27.1714143 31.0386339,25.9647982 28.9208804,21.9406512 C27.5090447,19.2578865 23.8048638,12.1415453 17.8083377,0.591627749 L10.6364074,3.15328152 L10.6364074,4.52168301 Z" id="path-15"></path>
        <linearGradient x1="60.0413498%" y1="66.4185446%" x2="25.8149569%" y2="19.990477%" id="linearGradient-17">
            <stop stop-color="#3B1754" offset="0%"></stop>
            <stop stop-color="#502B72" offset="100%"></stop>
        </linearGradient>
        <linearGradient x1="17.2699685%" y1="47.3126108%" x2="87.4596312%" y2="82.8407887%" id="linearGradient-18">
            <stop stop-color="#C889FF" offset="0%"></stop>
            <stop stop-color="#70BCFF" offset="100%"></stop>
        </linearGradient>
        <path d="M17.877262,7.03894866 C21.6532755,7.03894866 27.461137,8.69648466 35.3008467,12.0115567 C40.2156013,4.02486369 42.8689695,0.0315172075 43.2609511,0.0315172075 C43.8489236,0.0315172075 46.0163257,-0.39187609 46.0163257,1.86498273 C41.7960192,12.9103715 38.8196129,18.4330659 37.087107,18.4330659 C35.3546011,18.4330659 31.2946266,17.9442833 24.9071835,16.9667182 C16.4445558,10.3482052 14.1012486,7.03894866 17.877262,7.03894866 Z" id="path-19"></path>
        <linearGradient x1="50%" y1="9.60329228%" x2="64.9194989%" y2="114.606897%" id="linearGradient-21">
            <stop stop-color="#DFBBFF" offset="0%"></stop>
            <stop stop-color="#70BCFF" offset="100%"></stop>
        </linearGradient>
        <linearGradient x1="51.5242877%" y1="-4.83307357%" x2="50%" y2="100%" id="linearGradient-22">
            <stop stop-color="#C889FF" offset="0%"></stop>
            <stop stop-color="#70BCFF" offset="100%"></stop>
        </linearGradient>
        <path d="M10.8299909,9.72324992 C6.30793903,15.66777 8.36274489,29.9786208 10.8299909,42.4050978 C11.9107329,47.8483389 10.5512952,53.5340387 6.75167794,59.4621972 C10.5342645,58.6070033 13.5993682,56.2942023 15.946989,52.5237943 C18.2946098,48.7533862 20.8260409,47.1228297 23.5412822,47.6321247 C21.5196952,38.8205967 19.6151647,32.3650247 17.8276909,28.2654087 C16.040217,24.1657927 14.7309621,17.3214962 13.8999262,7.73251927 L10.8299909,9.72324992 Z" id="path-23"></path>
        <linearGradient x1="52.5513801%" y1="-4.83307357%" x2="50%" y2="100%" id="linearGradient-25">
            <stop stop-color="#C889FF" offset="0%"></stop>
            <stop stop-color="#70BCFF" offset="100%"></stop>
        </linearGradient>
        <linearGradient x1="50%" y1="0%" x2="66.368588%" y2="72.5337273%" id="linearGradient-26">
            <stop stop-color="#FF9FCF" offset="0%"></stop>
            <stop stop-color="#B641FF" offset="100%"></stop>
        </linearGradient>
        <path d="M5.10188214e-13,1.16728006 C2.77396398,0.187306229 4.60616678,-0.142006652 5.4966084,0.179341416 C6.83227083,0.661363518 11.8732966,7.23316721 12.2627227,10.4484379 C12.6521489,13.6637085 11.5401126,17.4173054 12.2261471,22.6147583 C12.6835035,26.0797269 13.631509,29.5652469 15.0701638,33.0713183 C14.1744899,33.377754 13.0943054,33.663435 11.8296102,33.9283612 C10.5649151,34.1932873 9.29456451,34.3241457 8.01855848,34.3209364 L1.97396346,17.7344098 L5.10188214e-13,4.71346622 L5.10188214e-13,1.16728006 Z" id="path-27"></path>
        <linearGradient x1="13.0199386%" y1="-25.6143392%" x2="50%" y2="105.615962%" id="linearGradient-29">
            <stop stop-color="#DBEDF2" offset="0%"></stop>
            <stop stop-color="#FFFFFF" offset="100%"></stop>
        </linearGradient>
        <path d="M1.49276189,12.5240823 C2.54902193,13.1330469 3.74116927,13.4375292 5.0692039,13.4375292 C6.39723852,13.4375292 6.83245163,12.3447576 6.37484323,10.1592144 C6.98032654,10.3986446 7.64122422,10.5183598 8.35753627,10.5183598 C9.43200434,10.5183598 11.1950818,4.22923397 9.77630903,0 C7.03176463,3.01241866 4.76886413,4.51862799 2.98760751,4.51862799 C2.01461286,4.51862799 0.994498917,2.90395774 0.175105705,4.51862799 C-0.371156436,5.59507483 0.360676532,6.423929 2.37060461,7.00519051 L1.49276189,12.5240823 Z" id="path-30"></path>
        <linearGradient x1="102.979901%" y1="47.4983103%" x2="-22.2952155%" y2="45.9521052%" id="linearGradient-32">
            <stop stop-color="#00C9FF" offset="0%"></stop>
            <stop stop-color="#92FE9D" offset="100%"></stop>
        </linearGradient>
        <linearGradient x1="166.306897%" y1="-38.6861264%" x2="19.1132178%" y2="67.0295347%" id="linearGradient-33">
            <stop stop-color="#5EFFAE" offset="0%"></stop>
            <stop stop-color="#407DF3" offset="100%"></stop>
        </linearGradient>
        <linearGradient x1="105.803581%" y1="50%" x2="-43.5291937%" y2="69.9739226%" id="linearGradient-34">
            <stop stop-color="#00C9FF" offset="0%"></stop>
            <stop stop-color="#92FE9D" offset="100%"></stop>
        </linearGradient>
        <linearGradient x1="8.46794085%" y1="27.9494263%" x2="81.1639662%" y2="69.3391468%" id="linearGradient-35">
            <stop stop-color="#FFFFFF" offset="0%"></stop>
            <stop stop-color="#FFFFFF" offset="100%"></stop>
        </linearGradient>
        <path d="M0.123227671,13.0395197 L8.95697402,28.626384 C9.21534486,29.0822711 9.79436536,29.2423897 10.2502525,28.9840189 C10.2523611,28.9828238 10.2544651,28.9816207 10.2565645,28.9804095 L30.8673995,17.0897662 C31.3178637,16.8298879 31.4751826,16.255822 31.2201379,15.8026036 L22.5971955,0.479503272 C22.3408085,0.0238997648 21.7641869,-0.138466851 21.3077397,0.116414959 L0.486100784,11.7432944 C0.0285861476,11.9987722 -0.13519703,12.5767668 0.120280819,13.0342815 C0.12125757,13.0360306 0.122239859,13.0377767 0.123227671,13.0395197 Z" id="path-36"></path>
        <filter x="-188.2%" y="-219.9%" width="527.5%" height="560.5%" filterUnits="objectBoundingBox" id="filter-37">
            <feOffset dx="8" dy="3" in="SourceAlpha" result="shadowOffsetOuter1"></feOffset>
            <feGaussianBlur stdDeviation="21" in="shadowOffsetOuter1" result="shadowBlurOuter1"></feGaussianBlur>
            <feColorMatrix values="0 0 0 0 0.827473958   0 0 0 0 0.310539246   0 0 0 0 0.534975443  0 0 0 0.442608173 0" type="matrix" in="shadowBlurOuter1"></feColorMatrix>
        </filter>
        <linearGradient x1="50%" y1="0%" x2="43.6893816%" y2="135.339523%" id="linearGradient-38">
            <stop stop-color="#FF9FCF" offset="0%"></stop>
            <stop stop-color="#B641FF" offset="100%"></stop>
        </linearGradient>
        <path d="M1.15893902,0.0286573257 C0.873558825,2.13306727 0.959818651,4.16331053 1.41771849,6.11938708 C2.10456826,9.05350191 2.4499468,9.82923482 4.41369342,9.39869552 C5.72285784,9.11166932 6.68297119,8.68419932 7.29403349,8.1162855 L8.7230385,12.5685113 L12.6220509,11.3622116 L11.4071564,8.1162855 L10.3400041,3.67032409 L8.7230385,1.58957752 L5.36483664,0.530571644 L1.15893902,0.0286573257 Z" id="path-39"></path>
        <path d="M5.03738704,0.875675885 C4.6399219,0.522242757 1.19249534,0.932043509 0.157071958,-0.244016424 C-1.11225847,-1.68575387 -1.12256417,-5.66554184 2.6587103,-6.72751135 C5.15738408,-7.42926294 6.42350884,-5.66368279 8.53546763,-4.46975308 C9.61956265,-3.85689393 12.0990047,-3.69856459 12.6403975,-3.46891824 C13.704462,-3.01756661 13.907162,-2.06045637 13.2484976,-0.597587512 C13.9852435,0.357074219 14.353734,0.97231263 14.3539689,1.24812772 C14.3542311,1.81636683 14.0937672,2.52828514 13.7450248,3.20728095 C13.4445474,3.7923055 12.8581786,5.80878742 12.0291907,6.52868513 C11.2002028,7.24858284 9.61439139,8.07552602 8.6309134,7.33235969 C7.97526141,6.83691547 7.43056708,5.70889145 6.9968304,3.94828761 C6.65920089,4.48221493 6.21030844,4.61393862 5.65015305,4.34345868 C4.80991995,3.93773878 5.92210657,1.66238436 5.03738704,0.875675885 Z" id="path-41"></path>
        <linearGradient x1="47.6011748%" y1="10.5960702%" x2="54.7408459%" y2="62.3225454%" id="linearGradient-43">
            <stop stop-color="#A6EEFF" offset="0%"></stop>
            <stop stop-color="#FFFFFF" offset="100%"></stop>
        </linearGradient>
        <linearGradient x1="44.4631556%" y1="-25.6143392%" x2="50%" y2="105.615962%" id="linearGradient-44">
            <stop stop-color="#DBEDF2" offset="0%"></stop>
            <stop stop-color="#FFFFFF" offset="100%"></stop>
        </linearGradient>
        <linearGradient x1="4.39784182%" y1="27.8324794%" x2="104.636177%" y2="56.9841194%" id="linearGradient-45">
            <stop stop-color="#FF9FCF" offset="0%"></stop>
            <stop stop-color="#B641FF" offset="100%"></stop>
        </linearGradient>
        <linearGradient x1="50%" y1="0%" x2="74.0559703%" y2="72.5337273%" id="linearGradient-46">
            <stop stop-color="#FF9FCF" offset="0%"></stop>
            <stop stop-color="#B641FF" offset="100%"></stop>
        </linearGradient>
        <linearGradient x1="50%" y1="16.3257079%" x2="302.531685%" y2="300.692724%" id="linearGradient-47">
            <stop stop-color="#FF9FCF" offset="0%"></stop>
            <stop stop-color="#B641FF" offset="100%"></stop>
        </linearGradient>
        <linearGradient x1="78.2311845%" y1="116.850046%" x2="26.1440633%" y2="-12.7469947%" id="linearGradient-48">
            <stop stop-color="#1FA2FF" offset="0%"></stop>
            <stop stop-color="#12D8FA" offset="53.5673921%"></stop>
            <stop stop-color="#A6FFCB" offset="100%"></stop>
        </linearGradient>
        <linearGradient x1="70.6018936%" y1="100%" x2="26.1440633%" y2="-12.7469947%" id="linearGradient-49">
            <stop stop-color="#00C9FF" offset="0%"></stop>
            <stop stop-color="#92FE9D" offset="100%"></stop>
        </linearGradient>
        <linearGradient x1="91.7897461%" y1="109.761601%" x2="23.020963%" y2="0%" id="linearGradient-50">
            <stop stop-color="#FFB262" offset="0%"></stop>
            <stop stop-color="#EB6881" offset="100%"></stop>
        </linearGradient>
        <linearGradient x1="26.0489227%" y1="9.59593398%" x2="91.2048288%" y2="94.6407323%" id="linearGradient-51">
            <stop stop-color="#FFFFFF" stop-opacity="0.318236451" offset="0%"></stop>
            <stop stop-color="#FFFFFF" offset="100%"></stop>
        </linearGradient>
    </defs>
    <g id="Page-1" stroke="none" stroke-width="1" fill="none" fill-rule="evenodd">
        <g id="Artboard" transform="translate(-4439.000000, -789.000000)">
            <g id="home-image" transform="translate(4444.000000, 798.000000)">
                <g id="Illustration">
                    <g id="BG" transform="translate(0.051318, 0.099986)">
                        <g id="BG-Step" transform="translate(92.422566, 189.607572) rotate(-22.000000) translate(-92.422566, -189.607572) translate(71.922566, 176.607572)">
                            <path d="M14.5229566,23.712693 C24.1113027,26.9851779 33.3526556,25.4108478 35.164096,20.1963284 C36.9755364,14.9818089 30.6711087,8.10173242 21.0827626,4.82924752 C11.4944165,1.55676262 2.25306364,3.13109272 0.441623236,8.3456122 C-1.36981717,13.5601317 4.93461054,20.4402081 14.5229566,23.712693 Z" id="BG" fill="url(#linearGradient-1)" opacity="0.200000003"></path>
                            <g id="BG">
                                <use fill="black" fill-opacity="1" filter="url(#filter-4)" xlink:href="#path-3"></use>
                                <use fill="url(#linearGradient-2)" fill-rule="evenodd" xlink:href="#path-3"></use>
                            </g>
                        </g>
                        <path d="M176.294691,180.766063 C203.9361,179.015767 211.61224,162.365749 199.360619,148.685201 C181.1961,128.402125 135.227112,107.872452 175.324827,97.1746123 C242.467689,79.2612834 196.68491,37.8353197 134.114525,37.8353197 C71.5441392,37.8353197 16.5041077,73.7741592 20.8208196,110.35722 C25.1375315,146.940281 107.671536,185.111385 176.294691,180.766063 Z" fill="url(#linearGradient-5)" opacity="0.200000003" transform="translate(114.514775, 109.470298) rotate(-23.000000) translate(-114.514775, -109.470298) "></path>
                        <g transform="translate(117.390659, 106.116492) rotate(-33.000000) translate(-117.390659, -106.116492) ">
                            <use fill="black" fill-opacity="1" filter="url(#filter-8)" xlink:href="#path-7"></use>
                            <path stroke="#FFFFFF" stroke-width="3.5580287" d="M135.672109,34.7500803 C167.381769,34.7500803 194.381034,46.5341415 203.382461,60.0328839 C205.739901,63.5681529 206.914118,67.2332228 206.772172,70.8627205 C206.636296,74.3370138 205.302161,77.8055317 202.524321,81.1191743 C197.850595,86.6943895 188.914815,91.9052035 174.586833,95.8863377 C169.338103,97.3447357 165.743039,98.9655274 163.517421,100.795629 C161.564016,102.401892 160.791953,104.152352 161.074006,106.082307 C161.904573,111.765484 169.676348,118.241033 178.108937,125.170376 L178.954166,125.864811 C179.095328,125.980798 179.236614,126.096908 179.377997,126.213139 L180.227217,126.91197 C186.614133,132.174305 193.213397,137.625291 197.878576,143.05059 C201.104025,146.801576 202.935473,150.773782 203.435243,154.611687 C203.957795,158.624537 203.043591,162.512378 200.689408,165.922426 C196.657016,171.763374 188.223841,176.286177 175.132261,177.149531 C143.016575,179.267472 107.661194,171.09309 79.7277423,157.91842 C50.9609688,144.350719 30.3014779,125.453156 28.2309522,107.178343 C27.2006565,98.0847774 29.6146865,89.0208106 34.792373,80.5271907 C40.1094963,71.804835 48.3541239,63.6788326 58.7153739,56.7713326 C78.5781521,43.5294805 106.240081,34.7500803 135.672109,34.7500803 Z" fill="url(#linearGradient-6)" fill-rule="evenodd"></path>
                        </g>
                        <g id="BG-Shapes" transform="translate(63.993204, 66.790953)">
                            <rect fill="#F3F3FD" opacity="0.100000001" x="53.327148" y="-8.59564692e-14" width="14.4476685" height="24.3250562"></rect>
                            <circle fill="#FFFFFF" opacity="0.200000003" cx="2.70410181" cy="83.2733673" r="2.70410181"></circle>
                            <rect fill="#F3F3FD" opacity="0.100000001" x="85.667356" y="70.2532767" width="14.4476685" height="6.98559635"></rect>
                            <circle stroke="#FFFFFF" stroke-width="0.721093817" opacity="0.300000012" cx="85.667356" cy="75.9142519" r="2.16817695"></circle>
                            <rect fill="#F3F3FD" opacity="0.100000001" x="129.00247" y="44.3545792" width="5.90839965" height="5.56238487"></rect>
                        </g>
                    </g>
                    <g id="Person" transform="translate(173.136189, 81.244908) scale(-1, 1) rotate(11.000000) translate(-173.136189, -81.244908) translate(143.136189, 19.244908)">
                        <g id="Shoes" transform="translate(24.633751, 101.309480)">
                            <path d="M15.0401713,6.29165996 C14.3012806,8.10303122 13.9318352,10.1465342 13.9318352,12.422169 C13.9318352,15.8356211 24.0717959,23.6278375 22.8045,20.4275269 C21.5372042,17.2272164 18.4229735,13.6824929 18.4229735,9.63280331 C18.4229735,6.93301022 17.2953728,5.81929577 15.0401713,6.29165996 Z" fill="url(#linearGradient-9)"></path>
                            <path d="M2.30153045,-3.46354008e-13 C0.767176816,1.33521782 -4.00287479e-14,2.76255135 -4.00287479e-14,4.2820006 C-4.00287479e-14,6.56117448 1.51230908,15.6931022 2.30153045,14.0631598 C3.09075181,12.4332173 2.98816499,6.08309995 3.95407473,3.30488936 C4.59801455,1.45274897 4.04716646,0.35111918 2.30153045,-3.46354008e-13 Z" fill="url(#linearGradient-10)"></path>
                        </g>
                        <g id="Trousers" transform="translate(14.832782, 50.509456)">
                            <mask id="mask-13" fill="white">
                                <use xlink:href="#path-12"></use>
                            </mask>
                            <use fill="url(#linearGradient-11)" xlink:href="#path-12"></use>
                            <path d="M22.0428221,0.591627749 C18.7183513,2.48622496 18.5823346,3.61191505 18.6503429,5.35967947 C18.7183513,7.10744389 20.3983806,10.8869498 16.5142222,10.8869498 C13.9247833,10.8869498 12.857844,13.3575149 13.3134043,18.298645 L7.105041,11.3538038 L7.70819793,3.48455814 L20.5535465,-0.951498299 C23.7627108,-1.18581241 24.259136,-0.671437059 22.0428221,0.591627749 Z" fill="#43143F" opacity="0.200000003" mask="url(#mask-13)"></path>
                            <mask id="mask-16" fill="white">
                                <use xlink:href="#path-15"></use>
                            </mask>
                            <use fill="url(#linearGradient-14)" xlink:href="#path-15"></use>
                            <path d="M22.0428221,0.591627749 C18.7183513,2.48622496 18.5823346,3.61191505 18.6503429,5.35967947 C18.7183513,7.10744389 20.3983806,10.8869498 16.5142222,10.8869498 C13.9247833,10.8869498 12.857844,13.3575149 13.3134043,18.298645 L7.105041,11.3538038 L7.70819793,3.48455814 L20.5535465,-0.951498299 C23.7627108,-1.18581241 24.259136,-0.671437059 22.0428221,0.591627749 Z" fill="#43143F" opacity="0.200000003" mask="url(#mask-16)"></path>
                            <path d="M14.6364058,5.62027053 C8.45016895,20.3330527 5.52825646,28.8045939 5.87066833,31.0348943 C6.2130802,33.2651946 13.5842895,39.8340336 27.9842962,50.7414113" stroke="#6D99F6" stroke-width="0.607236899" opacity="0.200000003" transform="translate(16.914013, 28.180841) scale(-1, 1) rotate(16.000000) translate(-16.914013, -28.180841) "></path>
                        </g>
                        <path d="M31.165911,3.85625914 C27.7306007,-0.240397739 24.2106315,-1.07302393 20.6060034,1.35838058 C15.1990613,5.00548733 17.5471457,10.0570827 17.5471457,13.3409628 C17.5471457,16.624843 17.1021096,16.7242758 12.6918188,17.429952 C8.2815281,18.1356282 6.08287554,20.8349695 6.08287554,25.2775388 C6.08287554,29.7201081 4.44891235,30.182211 3.07967049,30.182211 C1.71042863,30.182211 -0.7663019,30.5361622 0.230437907,33.6681105 C1.22717771,36.8000588 5.46216246,33.6757163 6.08287554,31.305839 C6.70358863,28.9359616 9.16380886,26.3948595 14.6138775,26.9985057 C20.0639461,27.602152 26.4290621,22.7930169 29.21158,18.4259498 C31.9940978,14.0588826 36.4963325,15.1927136 36.4963325,10.0370477 C36.4963325,6.59993711 34.7195254,4.53967426 31.165911,3.85625914 Z" id="Hair" fill="url(#linearGradient-17)"></path>
                        <g id="T-Shirt" transform="translate(8.452816, 12.385828)">
                            <mask id="mask-20" fill="white">
                                <use xlink:href="#path-19"></use>
                            </mask>
                            <use fill="url(#linearGradient-18)" xlink:href="#path-19"></use>
                            <path d="M19.4684202,7.03894866 C23.5412822,7.73251927 26.3564797,8.37509269 28.0435169,13.2772723 C29.730554,18.1794519 32.010445,14.7672674 34.5344999,17.2383308 C36.2172032,18.8857064 39.1446903,17.157486 43.3169611,12.0536695 L42.3158355,20.4693051 L33.531102,21.1993892 L21.9571266,16.0809395 C17.5827477,9.59056519 16.7531788,6.57656825 19.4684202,7.03894866 Z" fill="#3E1A58" opacity="0.100000001" mask="url(#mask-20)"></path>
                            <path d="M19.4684202,7.03894866 C22.9731264,7.73251927 27.2884991,11.8636514 27.81918,16.8019005 C28.3498608,21.7401495 26.7727388,30.0958674 29.618551,32.353989 C32.4643632,34.6121105 37.1948383,36.0135266 38.0635693,40.8132597 C36.3725763,40.1332994 35.0046386,40.2878493 33.9597563,41.2769095 C32.3924329,42.7604999 32.65833,45.2310719 30.3534426,45.2310719 C20.7602902,19.307276 17.1319494,6.57656825 19.4684202,7.03894866 Z" fill="url(#linearGradient-21)"></path>
                            <mask id="mask-24" fill="white">
                                <use xlink:href="#path-23"></use>
                            </mask>
                            <use fill="url(#linearGradient-22)" xlink:href="#path-23"></use>
                            <path d="M13.0758538,16.7905748 C13.489289,19.9165325 9.11988396,23.6462238 10.2695222,27.9232759 C11.4191603,32.200328 16.3227831,33.7769764 11.9937292,37.526943 C9.10769326,40.0269207 7.36034284,36.2275841 6.75167794,26.1289334 L10.2695222,14.0292212 C11.8647865,13.7861518 12.8002304,14.706603 13.0758538,16.7905748 Z" fill="#3E1A58" opacity="0.100000001" mask="url(#mask-24)"></path>
                            <path d="M17.5601299,43.2081935 C17.5601299,45.2310719 13.7445433,43.7037091 13.0758538,47.949302 C12.6300608,50.7796974 10.5220022,52.8740016 6.75167794,54.2322148 L10.2498085,38.2710583 C15.1233561,40.2138961 17.5601299,41.8596078 17.5601299,43.2081935 Z" fill="#3E1A58" opacity="0.100000001" mask="url(#mask-24)"></path>
                            <path d="M13.6534068,7.86356875 C6.62464506,10.8562194 3.72600037,17.8844045 0.593036812,29.3787213 C-0.376927194,31.8318905 0.1155906,33.9028875 2.0705902,35.5917121 C4.02558979,37.2805368 7.91513469,40.0311007 13.7392249,43.8434037 L15.2187968,41.6359551 C9.10969219,35.3882458 6.05513989,31.7834461 6.05513989,30.8215562 C6.05513989,29.9229357 8.89841941,24.3001186 14.5849784,13.9531049 L13.6534068,7.86356875 Z" fill="url(#linearGradient-25)"></path>
                        </g>
                        <g id="Inside-T-Shirt" transform="translate(21.937823, 19.342047)">
                            <mask id="mask-28" fill="white">
                                <use xlink:href="#path-27"></use>
                            </mask>
                            <use id="Path-27" fill="url(#linearGradient-26)" xlink:href="#path-27"></use>
                            <ellipse id="Oval" fill="#A12135" opacity="0.200000003" mask="url(#mask-28)" cx="0.603156928" cy="1.36008095" rx="4.92186595" ry="2.78813548"></ellipse>
                            <path d="M12.5713843,16.8416145 C11.2936647,21.9170502 9.44568829,23.4658599 12.2438984,26.2810437 C15.0421084,29.0962275 10.3505852,28.3904371 10.5512893,30.8419878 C10.6850921,32.4763549 9.82971325,33.2935384 7.98515287,33.2935384 L7.31662194,36.5270892 L17.1711748,31.7939254 L17.1711748,22.5999683 C14.9564608,15.377442 13.4231973,13.4579908 12.5713843,16.8416145 Z" id="Path-76" fill="#A12135" opacity="0.200000003" mask="url(#mask-28)"></path>
                            <line x1="-1.49127817" y1="5.95462974" x2="12.2438984" y2="2.35999552" id="Lines" stroke="#EEF7F9" stroke-width="0.607236899" opacity="0.196172805" mask="url(#mask-28)"></line>
                            <line x1="-1.49127817" y1="9.9156882" x2="12.2438984" y2="6.32105398" id="Lines" stroke="#EEF7F9" stroke-width="0.607236899" opacity="0.196172805" mask="url(#mask-28)"></line>
                            <line x1="-1.49127817" y1="13.8767467" x2="12.2438984" y2="10.2821124" id="Lines" stroke="#EEF7F9" stroke-width="0.607236899" opacity="0.196172805" mask="url(#mask-28)"></line>
                            <line x1="-1.49127817" y1="17.8378051" x2="12.2438984" y2="14.2431709" id="Lines" stroke="#EEF7F9" stroke-width="0.607236899" opacity="0.196172805" mask="url(#mask-28)"></line>
                            <line x1="-1.49127817" y1="21.7988636" x2="12.2438984" y2="18.2042294" id="Lines" stroke="#EEF7F9" stroke-width="0.607236899" opacity="0.196172805" mask="url(#mask-28)"></line>
                            <line x1="-1.49127817" y1="25.7599221" x2="12.2438984" y2="22.1652878" id="Lines" stroke="#EEF7F9" stroke-width="0.607236899" opacity="0.196172805" mask="url(#mask-28)"></line>
                            <line x1="2.10968407" y1="28.6406918" x2="15.8448606" y2="25.0460576" id="Lines" stroke="#EEF7F9" stroke-width="0.607236899" opacity="0.196172805" mask="url(#mask-28)"></line>
                            <line x1="2.17659309" y1="32.8403308" x2="15.7779516" y2="28.7685356" id="Lines" stroke="#EEF7F9" stroke-width="0.607236899" opacity="0.196172805" mask="url(#mask-28)"></line>
                        </g>
                        <polygon id="Laptop" fill="url(#linearGradient-29)" points="10.1810723 53.0494335 22.6393334 39.3262936 29.5628796 48.2350139 18.2481663 61.8632602"></polygon>
                        <path d="M23.6716124,54.0217835 C24.2926999,54.3695709 24.771142,54.249889 25.1069385,53.6627379 C25.6106333,52.7820112 26.9404394,52.4505308 26.6725914,54.7403722 C26.4047434,57.0302135 24.0632932,57.6198726 22.1974212,55.8208281 C20.9535066,54.621465 21.4449036,54.0217835 23.6716124,54.0217835 Z" id="Hands" fill="#FFC5CD"></path>
                        <path d="M51.7697768,12.9612533 C52.6179791,10.1957916 53.2209053,8.55858241 53.5785554,8.04962562 C53.9362055,7.54066883 54.2330675,8.04661718 54.4691413,9.56747068 C55.7457805,8.58477351 57.0917907,7.85062635 58.507172,7.36502919 C59.8140133,6.90727406 59.5792741,7.53202946 57.8029542,9.23929538 C56.0266343,10.9465613 54.6185014,12.9831799 53.5785554,15.3491513 L51.7697768,12.9612533 Z" id="Hands" fill="#FFC5CD"></path>
                        <g id="Head" transform="translate(20.859980, 7.954362)">
                            <mask id="mask-31" fill="white">
                                <use xlink:href="#path-30"></use>
                            </mask>
                            <use fill="#FFC5CD" xlink:href="#path-30"></use>
                            <ellipse fill="#502B72" mask="url(#mask-31)" cx="7.13328531" cy="5.38257731" rx="1" ry="1"></ellipse>
                            <ellipse fill="#502B72" mask="url(#mask-31)" cx="9.73329608" cy="5.38257731" rx="1" ry="1"></ellipse>
                            <path d="M5.80693079,8.48724098 C6.76901879,8.78035686 7.41319098,8.50672934 7.73944738,7.66635842" stroke="#E76666" stroke-width="0.607236899" stroke-linecap="round" mask="url(#mask-31)" transform="translate(6.773189, 8.133649) rotate(-315.000000) translate(-6.773189, -8.133649) "></path>
                            <path d="M2.73931572,3.97714197 C3.90924613,4.61241643 8.8400854,5.30926452 9.77630903,-0.360096224 C10.7125326,-6.02945696 1.5693853,3.34186752 2.73931572,3.97714197 Z" fill="#E76666" opacity="0.200000003" mask="url(#mask-31)"></path>
                            <path d="M6.37484323,10.1592144 C5.54234133,9.8892123 4.60119407,9.45660051 3.55140144,8.86137901 C3.5361694,11.5252976 4.20851192,13.050681 5.56842901,13.4375292 C6.9283461,13.8243775 7.19715084,12.7316059 6.37484323,10.1592144 Z" fill="#E76666" opacity="0.200000003" mask="url(#mask-31)"></path>
                            <path d="M5.92470552,3.37260778 C6.52532256,3.04240322 6.99537506,3.19952815 7.33486302,3.84398257" stroke="#502B72" stroke-width="0.607236899" stroke-linecap="round" mask="url(#mask-31)" transform="translate(6.629784, 3.524393) rotate(-30.000000) translate(-6.629784, -3.524393) "></path>
                            <path d="M9.45476158,3.25420342 C10.0553786,2.92399885 10.5254311,3.08112379 10.8649191,3.72557821" stroke="#502B72" stroke-width="0.607236899" stroke-linecap="round" mask="url(#mask-31)" transform="translate(10.159840, 3.405988) rotate(-12.000000) translate(-10.159840, -3.405988) "></path>
                            <path d="M8.0488261,3.40598835 C8.78486205,6.05595084 8.96887104,7.38093209 8.60085307,7.38093209 C8.23283509,7.38093209 7.9339602,7.38093209 7.70422838,7.38093209" stroke="#E76666" stroke-width="0.607236899" opacity="0.400000006" stroke-linecap="round" mask="url(#mask-31)"></path>
                        </g>
                    </g>
                    <g id="Person" transform="translate(33.796804, 51.097483)">
                        <g id="Laptop" transform="translate(42.088936, 31.345361) scale(-1, 1) rotate(14.000000) translate(-42.088936, -31.345361) translate(15.088936, 5.845361)">
                            <path d="M11.4700385,40.7158856 L28.2497984,50.6666483 C28.8133238,51.0008311 29.5135029,51.0041773 30.0801967,50.675396 L52.997989,37.3790743 C53.430042,37.1284081 53.5770851,36.5749548 53.3264189,36.1429018 C53.2496736,36.0106222 53.1406391,35.8999631 53.009509,35.8212699 L36.3131494,25.8015302 C35.7480163,25.4623852 35.0431477,25.4574635 34.4733337,25.7886837 L11.4768498,39.1560318 C11.0450037,39.4070544 10.8984173,39.9606288 11.1494399,40.3924748 C11.2269727,40.5258582 11.3373373,40.6371909 11.4700385,40.7158856 Z" id="Path-26" fill="url(#linearGradient-32)"></path>
                            <path d="M13.2357242,40.1888658 L22.2277496,45.5918197 C22.425657,45.7107345 22.6725944,45.7125326 22.8722124,45.5965126 L44.9166806,32.7840485 C45.0678916,32.6961631 45.1192272,32.5023372 45.0313419,32.3511261 C45.0045896,32.3050974 44.9666646,32.2665562 44.9210732,32.2390654 L36.1446293,26.9470353 C35.9481494,26.8285617 35.7029606,26.8256105 35.5036861,26.9393207 L13.2418766,39.6423718 C13.0899715,39.729052 13.0370963,39.9224636 13.1237765,40.0743688 C13.1506674,40.1214946 13.1892157,40.1609207 13.2357242,40.1888658 Z" id="Path-26" fill="url(#linearGradient-33)" fill-rule="nonzero" opacity="0.400000006"></path>
                            <path d="M0.179212948,20.5683504 L10.7626385,39.0919126 C11.0125179,39.5292621 11.569627,39.6812367 12.0069765,39.4313573 C12.0092838,39.430039 12.0115853,39.4287107 12.013881,39.4273723 L35.0657493,25.9880839 C35.4760123,25.7488997 35.6179953,25.2244829 35.3844415,24.8109888 L24.8599641,6.17798311 C24.6122434,5.7394073 24.0558901,5.58468866 23.6173143,5.83240936 C23.6134813,5.83457437 23.609664,5.8367671 23.6058627,5.83898738 L0.511114684,19.32837 C0.0791064778,19.5807012 -0.0689804189,20.1339518 0.179212948,20.5683504 Z" id="Path-26" fill="url(#linearGradient-34)"></path>
                            <g id="Screen" transform="translate(6.160158, 0.090095)">
                                <g id="Path-26">
                                    <use fill="black" fill-opacity="1" filter="url(#filter-37)" xlink:href="#path-36"></use>
                                    <use fill="url(#linearGradient-35)" fill-rule="evenodd" xlink:href="#path-36"></use>
                                </g>
                                <g id="Group-3" transform="translate(14.455844, 3.888463)" stroke="#F998D3" stroke-width="0.640445166">
                                    <line x1="6.87536135" y1="0.050338426" x2="0.0644302471" y2="3.9685157" id="Path-41"></line>
                                    <line x1="8.1681793" y1="2.58822595" x2="1.35724819" y2="6.50640322" id="Path-41" opacity="0.5"></line>
                                    <line x1="9.38633574" y1="4.92471151" x2="6.13607171" y2="6.79451615" id="Path-41" opacity="0.5"></line>
                                </g>
                                <path d="M10.3222357,9.42855236 L4.08444248,12.9469862 C3.85916992,13.0740514 3.77718877,13.3581441 3.9001294,13.5856938 L10.1945643,25.2360095 C10.3191062,25.4665229 10.6069354,25.5524299 10.8374489,25.427888 C10.842564,25.4251245 10.8476278,25.4222671 10.8526378,25.4193174 L17.3113282,21.6166931 C17.5352559,21.4848532 17.6114454,21.1973993 17.4822155,20.9719552 L10.9668834,9.60583003 C10.8372227,9.37963439 10.5493246,9.30046262 10.3222357,9.42855236 Z" id="Path" fill="url(#linearGradient-38)" opacity="0.5"></path>
                            </g>
                        </g>
                        <g id="Head" transform="translate(14.009086, 39.033738) scale(-1, 1) rotate(24.000000) translate(-14.009086, -39.033738) translate(7.509086, 32.533738)">
                            <mask id="mask-40" fill="white">
                                <use xlink:href="#path-39"></use>
                            </mask>
                            <use fill="#FFC4CF" xlink:href="#path-39"></use>
                            <polygon fill="#E76666" opacity="0.200000003" mask="url(#mask-40)" points="7.29403349 8.1162855 8.2652961 10.8481623 9.16507524 7.00241842"></polygon>
                            <mask id="mask-42" fill="white">
                                <use xlink:href="#path-41"></use>
                            </mask>
                            <use fill="#4B2669" xlink:href="#path-41"></use>
                            <ellipse fill="#FFC4CF" mask="url(#mask-42)" cx="7.24733311" cy="5.16346666" rx="1.34782752" ry="1.34470226"></ellipse>
                            <g id="Face" transform="translate(2.869906, 4.688555) rotate(-16.000000) translate(-2.869906, -4.688555) translate(0.869906, 1.688555)">
                                <path d="M1.41850997,0.247155404 C2.20150886,-0.183318237 2.81429631,0.0215188528 3.25687233,0.861666675" stroke="#502B72" stroke-width="0.607236899" stroke-linecap="round"></path>
                                <ellipse fill="#502B72" cx="2.03463611" cy="2.04055158" rx="1" ry="1"></ellipse>
                                <path d="M0.0856566749,5.6917968 C1.19103437,6.02856824 1.93114711,5.71418769 2.30599488,4.74865514" stroke="#E76666" stroke-width="0.607236899" stroke-linecap="round"></path>
                            </g>
                        </g>
                        <g id="Shoes" transform="translate(55.061261, 108.751460)">
                            <path d="M7.7267321,19.0775808 C6.9095557,20.8995651 5.21392257,22.3765317 2.63983269,23.5084806 C-1.22130211,25.2064038 2.2929279,25.7167047 5.5817625,25.1611543 C8.87059711,24.6056038 12.1538413,23.7503641 11.7999,21.60421 C11.4459587,19.4580559 12.012407,17.9446843 10.7418666,17.9446843 C9.89483977,17.9446843 8.88979492,18.3223165 7.7267321,19.0775808 Z" fill="#83437E" transform="translate(6.387487, 21.660453) scale(-1, 1) rotate(16.000000) translate(-6.387487, -21.660453) "></path>
                            <path d="M29.8393215,3.83907996 C29.0221451,5.6610643 27.326512,7.13803089 24.7524221,8.26997972 C20.8912873,9.96790298 24.4055173,10.4782039 27.6943519,9.92265345 C30.9831865,9.36710301 34.2664307,8.51186331 33.9124894,6.36570916 C33.5585481,4.21955502 34.1249964,2.70618349 32.8544561,2.70618349 C32.0074292,2.70618349 31.0023843,3.08381565 29.8393215,3.83907996 Z" fill="#894D84" transform="translate(28.500076, 6.421952) scale(-1, 1) rotate(42.000000) translate(-28.500076, -6.421952) "></path>
                        </g>
                        <g id="Trousers" transform="translate(13.007736, 57.380212)">
                            <path d="M25.2335228,13.3162034 C19.2631716,28.799449 16.5802664,38.5325285 17.1848072,42.515442 C17.789348,46.4983555 21.9846779,57.4658037 29.7707969,75.4177868 C30.7089308,76.0142872 31.7553669,76.0435543 32.9101052,75.5055881 C34.0648434,74.9676219 34.8100432,74.2712748 35.1457043,73.4165468 L25.659987,40.9250112 C35.167808,26.9644654 40.1029418,18.7157615 40.4653886,16.1788994 C40.9012968,13.1278613 40.1399229,10.3249329 38.181267,7.77011437 L25.2335228,13.3162034 Z" fill="url(#linearGradient-43)" transform="translate(28.842923, 41.829180) scale(-1, 1) rotate(34.000000) translate(-28.842923, -41.829180) "></path>
                            <path d="M36.8278067,4.20708297 C29.8722581,21.0403657 26.6967543,31.4484639 27.3012951,35.4313773 C27.9058359,39.4142908 32.7666871,50.5971485 41.8838487,68.9799505 C43.0017284,69.916012 44.1210136,70.0612428 45.2417042,69.4156427 C46.3623948,68.7700427 47.0458114,67.8294004 47.291954,66.5937159 L35.7764748,33.8409465 C46.3124157,15.8505799 51.7616096,5.58696553 52.1240563,3.05010345 C52.5599645,-0.000934677158 51.7985906,-2.80386301 49.8399347,-5.35868157 L36.8278067,4.20708297 Z" fill="url(#linearGradient-44)" transform="translate(39.735934, 32.226121) scale(-1, 1) rotate(54.000000) translate(-39.735934, -32.226121) "></path>
                            <path d="M6.37430151,19.7239189 L4.84100072,23.384919 C5.75914275,24.4885674 7.41849225,25.266729 9.81904922,25.7194038 C12.2196062,26.1720786 15.4210741,25.6204281 19.423453,24.0644523 C20.8370061,20.9909684 21.5860387,19.1584641 21.6705511,18.5669394 C22.1064593,15.5159013 21.3450854,12.7129729 19.3864295,10.1581544 L6.37430151,19.7239189 Z" id="Shadow" fill="#6E9FF8" opacity="0.200000003" transform="translate(13.315291, 18.015291) scale(-1, 1) rotate(54.000000) translate(-13.315291, -18.015291) "></path>
                            <path d="M66.0861932,16.2436656 L38.8975644,25.2783138 C37.309019,25.9163839 36.1358539,27.0594211 35.3780691,28.7074254 C34.6202843,30.3554297 29.0434749,40.619774 18.6476408,59.5004584" stroke="#6D99F6" stroke-width="0.607236899" opacity="0.200000003" transform="translate(42.366917, 37.872062) scale(-1, 1) rotate(4.000000) translate(-42.366917, -37.872062) "></path>
                        </g>
                        <g id="Hands" transform="translate(25.155864, 40.328066)" fill="#FFC4CF">
                            <path d="M11.436004,4.37376073 L9.63066429,4.05628997 C7.68489194,2.99428832 6.39294223,2.36650197 5.75481516,2.1729309 C4.79762456,1.88257429 0.406376262,3.33377719 0.475204104,3.73207331 C0.607927988,4.500126 4.30719568,4.82960553 5.31440563,5.03767719 C5.3838294,5.0520189 2.90888258,5.81151943 3.45386086,6.32172973 C3.81717971,6.66186993 5.68838052,6.60969638 9.0674633,6.16520906 L11.1776039,6.6273411 L11.436004,4.37376073 Z" id="Hand" transform="translate(5.955204, 4.381079) scale(-1, 1) rotate(24.000000) translate(-5.955204, -4.381079) "></path>
                            <path d="M21.7723985,7.24154343 L19.9670588,6.92407267 C18.0212865,5.86207102 16.7293368,5.23428467 16.0912097,5.04071359 C15.1340191,4.75035699 11.0584925,6.40534888 11.1273204,6.80364501 C11.2600443,7.57169769 14.4523911,8.04559601 15.459601,8.25366766 C15.6632465,8.2957372 17.6708506,9.1697222 18.4753657,9.45476762 C18.9819233,9.63424456 19.8972094,9.97663004 21.2212242,10.4819241 L21.7723985,7.24154343 Z" id="Hand" transform="translate(16.449429, 7.744332) scale(-1, 1) rotate(24.000000) translate(-16.449429, -7.744332) "></path>
                        </g>
                        <g id="T-Shirt" transform="translate(0.000000, 36.431911)">
                            <path d="M30.8219453,14.7650915 L16.9330184,11.2362305 C16.5016234,12.151273 16.2287298,12.7982996 16.1143374,13.1773102 C15.9999451,13.5563209 16.0047829,14.1687616 16.1288507,15.0146324 L30.5105174,20.3350608 L30.8219453,14.7650915 Z" fill="url(#linearGradient-45)" transform="translate(23.426985, 15.785646) scale(-1, 1) rotate(24.000000) translate(-23.426985, -15.785646) "></path>
                            <path d="M21.0739639,8.40022901 C21.0739639,8.40022901 21.0739639,8.40022901 21.0739639,8.40022901 C26.7033339,12.7163057 26.5254609,19.526326 27.1431731,28.3523433 C27.5549812,34.2363548 27.5263904,39.6151805 27.0574006,44.4888205 C22.3033616,44.9837553 18.931705,45.1866645 16.9424308,45.0975479 C13.7632217,44.955124 10.9981755,44.1284785 9.40253087,42.7422316 C6.4384871,40.1671616 6.28352501,34.5342073 8.42652834,29.3980707 C9.54354987,26.720905 9.53399264,22.3109907 8.39785662,16.168328 L8.39791102,16.168318 C7.59801196,11.8435628 10.4554724,7.68920964 14.7802277,6.88931057 C16.9974363,6.4792196 19.2845635,7.0282834 21.0739639,8.40022901 Z" fill="url(#linearGradient-46)" transform="translate(17.203899, 25.937195) scale(-1, 1) rotate(24.000000) translate(-17.203899, -25.937195) "></path>
                            <path d="M27.8462535,11.1186865 C29.2404345,25.2701734 29.2527364,33.5207464 27.8831592,35.8704055 C26.513582,38.2200645 23.303724,37.3929081 18.2535853,33.3889362 L19.8687766,29.6999958 L27.8462535,11.1186865 Z" id="Shadow" fill="#9928D3" opacity="0.300000012" transform="translate(23.577392, 24.146248) scale(-1, 1) rotate(24.000000) translate(-23.577392, -24.146248) "></path>
                            <path d="M32.7635532,9.01351585 L32.5367203,21.9441766 L17.4363422,16.0174443 C16.9445598,17.0641147 16.6414725,17.7769552 16.5270802,18.1559658 C16.4126879,18.5349765 16.401188,19.310221 16.4925805,20.4816994 C28.2930143,26.7932529 34.909031,29.630335 36.3406308,28.9929457 C39.3026091,27.674188 39.9762454,10.348123 39.6845833,7.84558116 C39.3929212,5.34303931 37.9871324,3.68903305 35.8563946,3.65499115 C34.4359028,3.63257779 33.4049557,5.41875269 32.7635532,9.01351585 Z" fill="url(#linearGradient-47)" transform="translate(28.089201, 16.367817) scale(-1, 1) rotate(24.000000) translate(-28.089201, -16.367817) "></path>
                            <polygon id="Shadow" fill="#3E1A58" opacity="0.200000003" transform="translate(28.470447, 22.231804) scale(-1, 1) rotate(20.000000) translate(-28.470447, -22.231804) " points="30.8707975 22.464084 30.7524803 24.1851216 26.0700966 20.2784865"></polygon>
                        </g>
                    </g>
                    <g id="Graph" transform="translate(91.513151, 4.981240)">
                        <g id="Screen" transform="translate(23.551107, 26.851028) scale(-1, 1) rotate(20.000000) translate(-23.551107, -26.851028) translate(7.051107, 4.351028)">
                            <path d="M4.43060891,21.7951641 L4.43060891,2.2204291 C4.43060891,1.4344111 5.06780239,0.797217618 5.85382039,0.797217618 C6.05061355,0.797217618 6.2452682,0.838030069 6.42548795,0.917076838 L30.4580466,11.4580753 C31.5166958,11.9224129 32.1893731,12.9809019 32.1602297,14.1365394 L31.4936027,40.5706287 C31.4737869,41.3563969 30.820732,41.977324 30.0349638,41.9575081 C29.7411578,41.9500988 29.4568506,41.8519127 29.2210875,41.6764344 L5.57751975,24.0785349 C4.85587196,23.5414127 4.43060891,22.6947617 4.43060891,21.7951641 Z" fill="url(#linearGradient-48)" opacity="0.2"></path>
                            <path d="M-8.62935534e-13,23.413481 L-8.62935534e-13,3.83874602 C-8.62460687e-13,3.05272803 0.637193484,2.41553454 1.42321148,2.41553454 C1.62000465,2.41553454 1.81465929,2.45634699 1.99487904,2.53539376 L26.0274377,13.0763922 C27.0860869,13.5407298 27.7587642,14.5992188 27.7296208,15.7548563 L27.0629938,42.1889457 C27.043178,42.9747138 26.3901231,43.5956409 25.6043549,43.575825 C25.3105489,43.5684157 25.0262417,43.4702296 24.7904786,43.2947513 L1.14691085,25.6968518 C0.425263056,25.1597296 -8.66688405e-13,24.3130786 -8.62935534e-13,23.413481 Z" fill="url(#linearGradient-49)"></path>
                            <line x1="4.07570362" y1="10.4950067" x2="12.4675866" y2="14.6170957" id="Lines" stroke="#FFFFFF" stroke-width="0.607236899" stroke-linecap="round"></line>
                            <line x1="4.07652222" y1="13.2713838" x2="12.4684052" y2="17.3934728" id="Lines" stroke="#FFFFFF" stroke-width="0.607236899" stroke-linecap="round"></line>
                            <line x1="7.9814586" y1="17.9654617" x2="12.4692238" y2="20.1698499" id="Lines" stroke="#FFFFFF" stroke-width="0.607236899" opacity="0.5" stroke-linecap="round"></line>
                        </g>
                        <g id="Content" transform="translate(13.460218, 15.706595)" fill="#FFFFFF" fill-opacity="0.58">
                            <path d="M0.329796695,7.12978673 L7.29542903,0.256321443 C7.388677,0.164307302 7.53886161,0.165307517 7.63087575,0.258555486 C7.65417782,0.28217001 7.67226714,0.310409993 7.68397516,0.34145116 L12.669084,13.5583335 C12.7605193,13.8007534 12.7129717,14.0737125 12.5449532,14.2709373 L5.91021524,22.0589799 C5.82526063,22.158702 5.67555057,22.1706734 5.57582845,22.0857188 C5.54539642,22.0597934 5.52201063,22.0265969 5.50784363,21.9892132 L0.164189463,7.88847971 C0.0643761182,7.62509414 0.129308121,7.3276225 0.329796695,7.12978673 Z" id="Path-33"></path>
                            <path d="M7.43423259,24.3989651 L13.7623981,16.4201343 C13.8438036,16.3174946 13.9930019,16.3002809 14.0956416,16.3816865 C14.1281768,16.4074908 14.1533677,16.4413841 14.1686955,16.4799777 L16.4962832,22.3405634 C16.5827734,22.5583354 16.5565133,22.8047281 16.4260676,22.9993794 L10.4188435,31.9633721 C10.3459138,32.0721979 10.1985719,32.1012974 10.0897461,32.0283678 C10.0495771,32.0014485 10.0185948,31.9628956 10.0009503,31.9178748 L7.32922985,25.1008193 C7.23675392,24.8648614 7.27674916,24.5975271 7.43423259,24.3989651 Z" id="Path-33"></path>
                        </g>
                    </g>
                    <g id="Icon" transform="translate(26.760539, 43.882354)">
                        <path d="M3.86145706,0 L18.2999579,0 C20.4325818,4.96421775e-16 22.161415,1.72883321 22.161415,3.86145706 C22.161415,3.97992852 22.1559629,4.09833723 22.1450759,4.2163074 L20.2668198,24.5688761 C20.210826,25.175619 19.6735717,25.6220893 19.0668289,25.5660954 C18.7948151,25.5409924 18.5417862,25.4158686 18.3567176,25.2149425 L16.3427257,23.0283831 C15.7018766,22.3326233 14.8279364,21.8962928 13.8867083,21.8021717 L3.47723461,20.7612432 C1.50324783,20.5638481 6.87038537e-16,18.9027809 0,16.9189491 L0,3.86145706 C1.82918113e-16,1.72883321 1.72883321,8.35845855e-16 3.86145706,0 Z" fill="url(#linearGradient-50)" transform="translate(11.267091, 13.520509) rotate(-360.000000) translate(-11.267091, -13.520509) "></path>
                        <circle id="Oval" fill="url(#linearGradient-51)" opacity="0.2" transform="translate(10.911288, 10.674086) scale(-1, 1) rotate(-360.000000) translate(-10.911288, -10.674086) " cx="10.911288" cy="10.6740861" r="9.01367271"></circle>
                        <circle id="Oval" fill="url(#linearGradient-51)" opacity="0.300000012" transform="translate(10.911288, 10.674086) scale(-1, 1) rotate(-360.000000) translate(-10.911288, -10.674086) " cx="10.911288" cy="10.6740861" r="6.40445166"></circle>
                    </g>
                </g>
                <path d="M39.8280091,51.5613779 C39.1257833,51.5613779 38.3045565,52.357466 37.8646565,52.8702796 C37.4247564,52.357466 36.6035297,51.5613779 35.9013039,51.5613779 C34.6582836,51.5613779 33.9379514,52.5309162 33.9379514,53.7648741 C33.9379514,55.1318303 35.2468531,56.5788345 37.8646565,58.1058864 C40.4824599,56.5788345 41.7913616,55.1608576 41.7913616,53.8519559 C41.7913616,52.617998 41.0710294,51.5613779 39.8280091,51.5613779 Z" id="Shape" fill-opacity="0.6" fill="#FFFFFF" fill-rule="nonzero"></path>
                <path d="M38.9164525,53.1012623 C38.5402601,53.1012623 38.1003172,53.5227207 37.8646565,53.7942102 C37.6289958,53.5227207 37.1890529,53.1012623 36.8128605,53.1012623 C36.1469567,53.1012623 35.7610645,53.6145473 35.7610645,54.2678191 C35.7610645,54.9915018 36.4622618,55.7575628 37.8646565,56.5660021 C39.2670512,55.7575628 39.9682485,55.0068692 39.9682485,54.3139212 C39.9682485,53.6606494 39.5823562,53.1012623 38.9164525,53.1012623 Z" id="Shape" fill="#FFFFFF" fill-rule="nonzero"></path>
                <g id="Group" transform="translate(113.876492, 101.669895)">
                    <g id="Stockholm-Icons-/-White-/-Communication-/-Mail-heart" transform="translate(13.322750, 13.322750) rotate(-39.000000) translate(-13.322750, -13.322750) ">
                        <rect id="bound" x="0" y="0" width="26.645499" height="26.645499"></rect>
                        <path d="M20.9541139,2.22045825 C21.031566,2.22045825 21.0943534,2.2832456 21.0943534,2.36069772 L21.0943534,15.4029683 C21.0943534,15.4804204 21.031566,15.5432078 20.9541139,15.5432078 L5.6913851,15.5432078 C5.61393298,15.5432078 5.55114563,15.4804204 5.55114563,15.4029683 L5.55114563,2.36069772 C5.55114563,2.2832456 5.61393298,2.22045825 5.6913851,2.22045825 L20.9541139,2.22045825 Z M15.3211619,4.4409165 C14.6063964,4.4409165 13.7705049,5.25122041 13.3227495,5.77319145 C12.8749941,5.25122041 12.0391026,4.4409165 11.3243371,4.4409165 C10.05912,4.4409165 9.32592465,5.42776801 9.32592465,6.68376084 C9.32592465,8.07512701 10.6581996,9.54797048 13.3227495,11.1022913 C15.9872994,9.54797048 17.3195744,8.10467262 17.3195744,6.77239767 C17.3195744,5.51640483 16.586379,4.4409165 15.3211619,4.4409165 Z" id="Combined-Shape" fill="#FFFFFF" opacity="0.439999998"></path>
                        <path d="M3.44186155,6.74166721 L13.3227495,13.8778641 L13.3227495,13.8778641 L23.2036375,6.74166721 C23.2350319,6.71899347 23.2788628,6.72606297 23.3015365,6.75745738 C23.3101666,6.76940676 23.3148116,6.78377187 23.3148116,6.79851183 L23.3148116,20.8138744 C23.3148116,20.9687787 23.1892369,21.0943534 23.0343327,21.0943534 L3.61116631,21.0943534 C3.45626207,21.0943534 3.33068738,20.9687787 3.33068738,20.8138744 L3.33068738,6.79851183 C3.33068738,6.75978577 3.36208105,6.72839209 3.40080711,6.72839209 C3.41554706,6.72839209 3.42991218,6.73303711 3.44186155,6.74166721 Z" id="Combined-Shape" fill="#FFFFFF"></path>
                    </g>
                </g>
            </g>
        </g>
    </g>
</svg>