<?xml version="1.0" encoding="UTF-8"?>
<svg width="24px" height="24px" viewBox="0 0 24 24" version="1.1" xmlns="http://www.w3.org/2000/svg" xmlns:xlink="http://www.w3.org/1999/xlink">
    <title>nav-active-message</title>
    <g id="Page-1" stroke="none" stroke-width="1" fill="none" fill-rule="evenodd">
        <g id="101_Home" transform="translate(-92.000000, -602.000000)">
            <g id="NAV" transform="translate(24.000000, 585.000000)">
                <g id="nav-active-message" transform="translate(80.000000, 29.000000) rotate(-90.000000) translate(-80.000000, -29.000000) translate(68.000000, 17.000000)">
                    <rect id="bound" x="0" y="0" width="24" height="24"></rect>
                    <path d="M10,5.8705185 C10,5.78199118 10.0235042,5.69505102 10.0681105,5.61858299 C10.2072507,5.38005703 10.5134096,5.29948891 10.7519355,5.43862905 L10.7519355,5.43862905 L21.2596181,11.5681105 C21.3341199,11.6115699 21.3961126,11.6735627 21.439572,11.7480645 C21.5787122,11.9865904 21.498144,12.2927493 21.2596181,12.4318895 L21.2596181,12.4318895 L10.7519355,18.561371 C10.6754675,18.6059773 10.5885273,18.6294815 10.5,18.6294815 C10.2238576,18.6294815 10,18.4056239 10,18.1294815 L10,18.1294815 L10,13 L20.1538462,12 L10,11 Z" id="Combined-Shape" fill="#7D83FF"></path>
                    <rect id="Rectangle-Copy" fill="#7D83FF" opacity="0.6" x="5" y="16" width="3" height="2" rx="1"></rect>
                    <rect id="Rectangle-Copy-2" fill="#7D83FF" x="2" y="11" width="6" height="2" rx="1"></rect>
                    <rect id="Rectangle-Copy-3" fill="#7D83FF" opacity="0.6" x="5" y="6" width="3" height="2" rx="1"></rect>
                </g>
            </g>
        </g>
    </g>
</svg>