<?xml version="1.0" encoding="UTF-8"?>
<svg width="24px" height="24px" viewBox="0 0 24 24" version="1.1" xmlns="http://www.w3.org/2000/svg" xmlns:xlink="http://www.w3.org/1999/xlink">
    <title>nav-messages</title>
    <g id="Page-1" stroke="none" stroke-width="1" fill="none" fill-rule="evenodd" opacity="0.6">
        <g id="102_Profile" transform="translate(-92.000000, -602.000000)">
            <g id="nav-messages" transform="translate(92.000000, 602.000000)">
                <rect id="bound" transform="translate(12.000000, 12.000000) rotate(-90.000000) translate(-12.000000, -12.000000) " x="0" y="0" width="24" height="24"></rect>
                <path d="M6,1.8705185 C6,1.78199118 6.0235042,1.69505102 6.06811055,1.61858299 C6.20725069,1.38005703 6.51340956,1.29948891 6.75193551,1.43862905 L6.75193551,1.43862905 L17.2596181,7.56811055 C17.3341199,7.61156994 17.3961126,7.67356267 17.439572,7.74806449 C17.5787122,7.98659044 17.498144,8.29274931 17.2596181,8.43188945 L17.2596181,8.43188945 L6.75193551,14.561371 C6.67546748,14.6059773 6.58852732,14.6294815 6.5,14.6294815 C6.22385763,14.6294815 6,14.4056239 6,14.1294815 L6,14.1294815 L6,9 L16.1538462,8 L6,7 Z" id="Combined-Shape" fill="#7D83FF" transform="translate(12.000000, 8.000000) rotate(-90.000000) translate(-12.000000, -8.000000) "></path>
                <rect id="Rectangle-Copy" fill="#7D83FF" transform="translate(17.000000, 17.500000) rotate(-90.000000) translate(-17.000000, -17.500000) " x="15.5" y="16.5" width="3" height="2" rx="1"></rect>
                <rect id="Rectangle-Copy-2" fill="#7D83FF" transform="translate(12.000000, 19.000000) rotate(-90.000000) translate(-12.000000, -19.000000) " x="9" y="18" width="6" height="2" rx="1"></rect>
                <rect id="Rectangle-Copy-3" fill="#7D83FF" transform="translate(7.000000, 17.500000) rotate(-90.000000) translate(-7.000000, -17.500000) " x="5.5" y="16.5" width="3" height="2" rx="1"></rect>
            </g>
        </g>
    </g>
</svg>