<?xml version="1.0" encoding="UTF-8"?>
<svg width="134px" height="49px" viewBox="0 0 134 49" version="1.1" xmlns="http://www.w3.org/2000/svg" xmlns:xlink="http://www.w3.org/1999/xlink">
    <title>white-logo</title>
    <g id="Page-1" stroke="none" stroke-width="1" fill="none" fill-rule="evenodd">
        <g id="101_Home-Copy" transform="translate(-121.000000, -24.000000)">
            <g id="white-logo" transform="translate(121.000000, 24.000000)">
                <rect id="Bound" x="0" y="0" width="134" height="49"></rect>
                <path d="M12.12,42 L12.12,35.472 L15,32.448 L21.864,42 L28.68,42 L18.888,28.512 L28.488,18.624 L21.096,18.624 L12.12,28.08 L12.12,7.248 L6.6,7.248 L6.6,42 L12.12,42 Z M35.448,14.016 C37.464,14.016 39.096,12.432 39.096,10.416 C39.096,8.4 37.464,6.768 35.448,6.768 C33.48,6.768 31.848,8.4 31.848,10.416 C31.848,12.432 33.48,14.016 35.448,14.016 Z M38.232,42 L38.232,18.624 L32.712,18.624 L32.712,42 L38.232,42 Z M51,42 L51,28.512 C51,25.44 52.68,22.992 55.848,22.992 C59.352,22.992 60.648,25.296 60.648,28.176 L60.648,42 L66.216,42 L66.216,27.216 C66.216,22.08 63.48,17.952 57.768,17.952 C55.176,17.952 52.392,19.056 50.856,21.744 L50.856,18.624 L45.432,18.624 L45.432,42 L51,42 Z M82.392,42.576 C85.704,42.576 88.152,40.944 89.256,38.976 C89.256,39.936 89.4,41.472 89.496,42 L94.824,42 C94.776,41.616 94.584,39.84 94.584,37.728 L94.584,7.248 L89.16,7.248 L89.16,21.36 C88.44,19.872 86.376,18 82.296,18 C75.72,18 71.16,23.52 71.16,30.24 C71.16,37.296 75.672,42.576 82.392,42.576 Z M83.016,37.68 C79.224,37.68 76.728,34.704 76.728,30.24 C76.728,25.776 79.416,22.944 83.064,22.944 C86.712,22.944 89.208,25.728 89.208,30.192 C89.208,34.656 86.664,37.68 83.016,37.68 Z M107.448,42 L107.448,7.248 L101.88,7.248 L101.88,42 L107.448,42 Z M120.216,42 L120.216,30.864 C120.216,26.496 122.184,24 126.504,24 C127.08,24 127.704,24.048 128.328,24.144 L128.328,18.48 C128.088,18.432 127.512,18.336 126.84,18.336 C123.768,18.336 121.176,19.824 120.072,22.368 L120.072,18.624 L114.648,18.624 L114.648,42 L120.216,42 Z" id="kindlr" fill="#FFFFFF" fill-rule="nonzero"></path>
            </g>
        </g>
    </g>
</svg>